<svg xmlns="http://www.w3.org/2000/svg" width="512" height="512" viewBox="0 0 512 512"><mask id="a"><circle cx="256" cy="256" r="256" fill="#fff"/></mask><g mask="url(#a)"><path fill="#eee" d="M256 0h256v64l-32 32 32 32v64l-32 32 32 32v64l-32 32 32 32v64l-256 32L0 448v-64l32-32-32-32v-64z"/><path fill="#d80027" d="M256 64h256v64H256zm0 128h256v64H224zM0 320h512v64H0zm0 128h512v64H0z"/><path fill="#0052b4" d="M0 0h256v256H0z"/><path fill="#eee" d="m44 49 17 51h53l-43 32 17 50-44-31-43 31 16-50-43-32h54zm113 0 17 51h53l-43 32 17 50-44-31-43 31 16-50-43-32h54zm-57 47 16 51h54l-44 32 17 50-43-31-44 31 17-50-43-32h53zm-56 56 16 51h54l-44 32 17 50-43-31-44 31 17-50-43-32h53zm113 0 16 51h54l-44 32 17 50-43-31-44 31 17-50-43-32h53z"/></g></svg>
