<svg width="149" height="34" viewBox="0 0 149 34" fill="none" xmlns="http://www.w3.org/2000/svg">
<path d="M4.16714 10.8698H3.30133C3.21132 10.8229 3.13519 10.7521 3.08087 10.6648C3.02654 10.5774 2.99599 10.4768 2.9924 10.3732C2.98665 10.3312 2.99026 10.2885 3.00296 10.2482C3.01565 10.2079 3.03709 10.1711 3.06567 10.1405C3.09425 10.11 3.12921 10.0865 3.16792 10.0719C3.20663 10.0572 3.24808 10.0518 3.28913 10.056C3.47611 10.056 3.61026 10.1812 3.64278 10.4191H4.11836C4.12699 10.3022 4.11153 10.1847 4.073 10.0744C4.03447 9.96401 3.97373 9.86322 3.89473 9.77856C3.81573 9.69391 3.72025 9.62729 3.61451 9.58305C3.50876 9.53881 3.39513 9.51793 3.281 9.52178C3.17812 9.51404 3.07482 9.52873 2.97785 9.56487C2.88089 9.60101 2.79247 9.65779 2.71839 9.73149C2.6443 9.80519 2.58623 9.89414 2.54799 9.9925C2.50975 10.0909 2.49219 10.1964 2.49648 10.3022C2.49544 10.5069 2.57112 10.7042 2.70786 10.8531H2.39893V11.3874H4.16714V10.8698Z" fill="#E6E6E6"/>
<path d="M5.67115 12.9443C5.67115 13.3616 5.51262 13.6872 4.99232 13.6872H1.90708C1.78828 13.6932 1.66957 13.6735 1.55864 13.6294C1.44771 13.5854 1.34702 13.5179 1.26311 13.4313C1.17919 13.3448 1.11391 13.2411 1.07149 13.127C1.02908 13.0129 1.01047 12.8909 1.01688 12.769V11.4126H0.000657954V12.769C-0.00605562 13.0279 0.0386678 13.2855 0.132098 13.5261C0.225529 13.7667 0.365709 13.9853 0.544093 14.1684C0.722477 14.3516 0.935325 14.4955 1.16966 14.5914C1.40399 14.6873 1.6549 14.7333 1.90708 14.7264H5.38661C5.56043 14.7309 5.73335 14.6992 5.89487 14.6331C6.0564 14.5671 6.20319 14.468 6.32633 14.342C6.44947 14.2159 6.5464 14.0655 6.61126 13.8999C6.67611 13.7342 6.70754 13.5568 6.70363 13.3783V8.42432H5.67115V12.9443Z" fill="#E6E6E6"/>
<path d="M8.37431 14.8349C8.38012 14.9565 8.36108 15.078 8.3184 15.1916C8.27572 15.3052 8.21035 15.4084 8.1265 15.4945C8.04265 15.5806 7.94217 15.6477 7.83153 15.6915C7.72089 15.7353 7.60254 15.7549 7.4841 15.7489H7.05322V16.7923H7.4841C7.73598 16.798 7.98636 16.7512 8.22017 16.6549C8.45398 16.5585 8.66636 16.4146 8.8445 16.2317C9.02265 16.0488 9.16287 15.8307 9.25671 15.5906C9.35056 15.3506 9.39607 15.0935 9.39052 14.8349V10.3608H8.37431V14.8349Z" fill="#E6E6E6"/>
<path d="M20.5322 15.4484C20.4116 15.45 20.2942 15.4884 20.1949 15.5585C20.0955 15.6287 20.0187 15.7275 19.974 15.8425C19.9294 15.9575 19.9189 16.0836 19.944 16.2047C19.9691 16.3258 20.0286 16.4365 20.115 16.5229C20.2014 16.6092 20.3108 16.6674 20.4294 16.6899C20.548 16.7125 20.6704 16.6984 20.7812 16.6495C20.892 16.6006 20.9862 16.5191 21.0518 16.4152C21.1175 16.3114 21.1517 16.1898 21.1501 16.066C21.1458 15.9007 21.0789 15.7436 20.9635 15.6282C20.848 15.5128 20.6933 15.4483 20.5322 15.4484Z" fill="#E6E6E6"/>
<path d="M24.6459 13.2782C24.651 13.3311 24.6452 13.3845 24.629 13.435C24.6127 13.4856 24.5862 13.532 24.5514 13.5713C24.5165 13.6107 24.474 13.6421 24.4265 13.6635C24.3791 13.6848 24.3278 13.6958 24.276 13.6955H23.1338C22.9468 13.6705 22.7273 13.6413 22.2354 12.4768C21.3411 10.5361 19.951 9.77655 18.3616 10.3901V11.35C19.6867 10.8241 20.4713 11.35 21.1135 12.6354C21.2694 13.0153 21.4585 13.3799 21.6785 13.7247H17.7559C17.6756 13.7309 17.5949 13.7187 17.5197 13.689C17.4445 13.6593 17.3766 13.6128 17.321 13.5529C17.2654 13.493 17.2234 13.4212 17.1981 13.3427C17.1728 13.2641 17.1648 13.1808 17.1746 13.0987V12.0845C17.1813 11.8217 17.136 11.5603 17.0415 11.316C16.9469 11.0717 16.8052 10.8496 16.6247 10.6632C16.4442 10.4767 16.2288 10.3297 15.9915 10.2312C15.7541 10.1326 15.4998 10.0844 15.2438 10.0896H15.1463C14.8903 10.0844 14.636 10.1326 14.3986 10.2312C14.1613 10.3297 13.9459 10.4767 13.7654 10.6632C13.585 10.8496 13.4432 11.0717 13.3487 11.316C13.2541 11.5603 13.2088 11.8217 13.2155 12.0845V13.0987C13.2195 13.1763 13.2077 13.254 13.1808 13.3267C13.1539 13.3994 13.1126 13.4656 13.0594 13.5209C13.0063 13.5763 12.9424 13.6197 12.872 13.6483C12.8016 13.6769 12.7261 13.6902 12.6505 13.6872H11.9472C11.8954 13.6874 11.8441 13.6765 11.7967 13.6551C11.7492 13.6337 11.7067 13.6023 11.6718 13.563C11.637 13.5236 11.6105 13.4772 11.5942 13.4267C11.578 13.3762 11.5722 13.3227 11.5773 13.2698V8.42432H10.5611V13.6412C10.5595 13.7842 10.5857 13.9261 10.6382 14.0585C10.6908 14.1909 10.7685 14.3112 10.867 14.4123C10.9655 14.5134 11.0826 14.5933 11.2116 14.6472C11.3406 14.7011 11.4787 14.7281 11.618 14.7264H12.6667C12.8912 14.7318 13.1138 14.6828 13.3165 14.5835C13.5192 14.4841 13.6962 14.3372 13.8333 14.1546C14.2448 14.5109 14.7666 14.7048 15.3048 14.7013C15.5457 14.6997 15.7835 14.6452 16.0022 14.5416C16.2209 14.4379 16.4155 14.2875 16.573 14.1003C16.7038 14.2976 16.8805 14.4583 17.087 14.5676C17.2936 14.6769 17.5236 14.7315 17.7559 14.7264H24.6134C24.7522 14.7281 24.89 14.7011 25.0185 14.6471C25.1471 14.593 25.2637 14.513 25.3615 14.4118C25.4594 14.3106 25.5364 14.1902 25.588 14.0579C25.6396 13.9255 25.6648 13.7838 25.6621 13.6412V8.42432H24.6459V13.2782ZM16.1788 12.7064C16.181 12.9486 16.0908 13.182 15.9274 13.3568C15.7641 13.5315 15.5406 13.6336 15.3048 13.6412C15.1032 13.6486 14.9026 13.6075 14.7191 13.5213C14.5357 13.4351 14.3743 13.3061 14.2479 13.1446V12.0762C14.2404 11.9503 14.2587 11.8241 14.3019 11.706C14.345 11.5878 14.4119 11.4804 14.4982 11.3906C14.5845 11.3008 14.6883 11.2307 14.8027 11.1849C14.9172 11.139 15.0398 11.1185 15.1625 11.1246H15.2601C15.383 11.1185 15.5058 11.1391 15.6204 11.1849C15.7351 11.2307 15.8391 11.3007 15.9257 11.3904C16.0124 11.4801 16.0796 11.5875 16.1232 11.7057C16.1668 11.8238 16.1857 11.95 16.1788 12.0762V12.7064Z" fill="#E6E6E6"/>
<path d="M27.8818 8.42432H26.8696V14.7264H27.8818V8.42432Z" fill="#E6E6E6"/>
<path d="M30.9952 10.102H30.8977C30.6424 10.0957 30.3886 10.1427 30.1516 10.2401C29.9146 10.3375 29.6993 10.4833 29.5187 10.6687C29.3382 10.854 29.1962 11.0751 29.1013 11.3184C29.0065 11.5618 28.9607 11.8224 28.9669 12.0845V12.7272C28.9603 13.245 29.153 13.7445 29.5031 14.1173C29.8532 14.4901 30.3325 14.7059 30.8367 14.718H31.9017V14.8932C31.9017 15.6278 31.3651 16.0243 29.6172 15.7071V16.6754C31.7594 17.1929 32.9179 16.4124 32.9179 15.1478V12.097C32.9268 11.8343 32.8834 11.5725 32.7902 11.3277C32.697 11.0829 32.556 10.8602 32.376 10.6734C32.1959 10.4865 31.9805 10.3395 31.7431 10.2412C31.5056 10.143 31.2511 10.0956 30.9952 10.102ZM31.9017 13.6746H30.8448C30.6094 13.6617 30.3879 13.5559 30.2266 13.3794C30.0653 13.2029 29.9766 12.9692 29.979 12.7272V12.0845C29.9726 11.9588 29.9919 11.8332 30.0358 11.7158C30.0797 11.5984 30.1472 11.4917 30.2338 11.4028C30.3204 11.3139 30.4243 11.2446 30.5386 11.1996C30.653 11.1545 30.7753 11.1346 30.8977 11.1412H30.9952C31.1169 11.1351 31.2384 11.1554 31.3519 11.2008C31.4654 11.2462 31.5683 11.3157 31.6539 11.4048C31.7394 11.4938 31.8057 11.6003 31.8484 11.7174C31.8911 11.8346 31.9093 11.9596 31.9017 12.0845V13.6746Z" fill="#E6E6E6"/>
<path d="M36.8041 9.36742C36.9658 9.36742 37.1209 9.30147 37.2352 9.18406C37.3496 9.06666 37.4138 8.90742 37.4138 8.74139C37.4138 8.57535 37.3496 8.41612 37.2352 8.29872C37.1209 8.18132 36.9658 8.11536 36.8041 8.11536C36.6424 8.11536 36.4873 8.18132 36.3729 8.29872C36.2586 8.41612 36.1943 8.57535 36.1943 8.74139C36.1943 8.90742 36.2586 9.06666 36.3729 9.18406C36.4873 9.30147 36.6424 9.36742 36.8041 9.36742Z" fill="#E6E6E6"/>
<path d="M38.5316 9.36742C38.6933 9.36742 38.8484 9.30147 38.9628 9.18406C39.0771 9.06666 39.1413 8.90742 39.1413 8.74139C39.1413 8.57535 39.0771 8.41612 38.9628 8.29872C38.8484 8.18132 38.6933 8.11536 38.5316 8.11536C38.3699 8.11536 38.2148 8.18132 38.1005 8.29872C37.9861 8.41612 37.9219 8.57535 37.9219 8.74139C37.9219 8.90742 37.9861 9.06666 38.1005 9.18406C38.2148 9.30147 38.3699 9.36742 38.5316 9.36742Z" fill="#E6E6E6"/>
<path d="M41.9421 15.7488C41.8203 15.748 41.7011 15.7843 41.5995 15.8533C41.498 15.9222 41.4187 16.0206 41.3717 16.1359C41.3248 16.2512 41.3123 16.3783 41.3358 16.5009C41.3594 16.6235 41.4179 16.7362 41.504 16.8246C41.5901 16.913 41.6998 16.9731 41.8193 16.9973C41.9387 17.0215 42.0625 17.0086 42.1748 16.9604C42.2871 16.9122 42.3829 16.8308 42.45 16.7265C42.5172 16.6222 42.5526 16.4998 42.5518 16.3748C42.5477 16.2101 42.4821 16.0533 42.3687 15.9368C42.2552 15.8203 42.1025 15.753 41.9421 15.7488Z" fill="#E6E6E6"/>
<path d="M45.9539 15.5862C45.8043 15.6039 45.6663 15.6775 45.5662 15.793C45.466 15.9084 45.4106 16.0576 45.4106 16.2122C45.4106 16.3668 45.466 16.516 45.5662 16.6315C45.6663 16.7469 45.8043 16.8205 45.9539 16.8382C46.1035 16.8205 46.2415 16.7469 46.3417 16.6315C46.4418 16.516 46.4972 16.3668 46.4972 16.2122C46.4972 16.0576 46.4418 15.9084 46.3417 15.793C46.2415 15.6775 46.1035 15.6039 45.9539 15.5862Z" fill="#E6E6E6"/>
<path d="M46.3483 13.6412V10.4359H45.3361V13.2781C45.3406 13.3309 45.3344 13.3841 45.3179 13.4343C45.3014 13.4846 45.2749 13.5307 45.2402 13.5699C45.2054 13.6092 45.1632 13.6405 45.116 13.6621C45.0689 13.6838 45.0179 13.6951 44.9662 13.6955H43.133C42.6208 13.6955 42.4541 13.3574 42.4541 12.9526V12.8065C42.4541 12.7147 42.4541 12.6354 42.4541 12.5519V10.4652H41.4298V12.9693C41.4298 13.3574 41.2713 13.6871 40.7591 13.6871H40.0559C39.9795 13.6913 39.9032 13.679 39.8318 13.6509C39.7604 13.6228 39.6955 13.5796 39.6415 13.5241C39.5874 13.4686 39.5453 13.4021 39.518 13.3287C39.4906 13.2554 39.4786 13.177 39.4827 13.0987V10.0895H37.4503C37.1948 10.0849 36.9411 10.1335 36.7045 10.2324C36.4678 10.3313 36.2532 10.4784 36.0735 10.6649C35.8938 10.8513 35.7527 11.0733 35.6589 11.3173C35.5651 11.5613 35.5204 11.8223 35.5276 12.0845V12.7063C35.5211 13.226 35.7148 13.7272 36.0665 14.1009C36.4182 14.4745 36.8996 14.6903 37.4056 14.7013C37.662 14.7136 37.9179 14.668 38.1552 14.5678C38.3926 14.4675 38.6057 14.3151 38.7795 14.1212C38.9315 14.3141 39.1244 14.4689 39.3435 14.5738C39.5625 14.6786 39.802 14.7308 40.0437 14.7263H40.751C40.9735 14.7377 41.1957 14.6983 41.4016 14.611C41.6076 14.5237 41.7921 14.3906 41.942 14.2213C42.0744 14.374 42.2356 14.4975 42.4159 14.5843C42.5962 14.6711 42.7917 14.7194 42.9907 14.7263H45.2833C45.4232 14.7291 45.5623 14.7031 45.6922 14.6496C45.8221 14.5962 45.9402 14.5165 46.0396 14.4153C46.1389 14.3141 46.2174 14.1934 46.2704 14.0604C46.3235 13.9275 46.35 13.7849 46.3483 13.6412ZM38.4868 13.1529C38.3621 13.3143 38.2023 13.4433 38.0201 13.5295C37.8379 13.6158 37.6386 13.6569 37.4381 13.6496C37.3208 13.6463 37.2053 13.6193 37.0983 13.5701C36.9912 13.5209 36.8947 13.4504 36.8142 13.3628C36.7337 13.2751 36.6709 13.172 36.6294 13.0594C36.5879 12.9467 36.5685 12.8267 36.5723 12.7063V12.0845C36.5651 11.9578 36.5843 11.831 36.6284 11.7125C36.6725 11.5939 36.7406 11.4863 36.8281 11.3968C36.9157 11.3072 37.0208 11.2378 37.1365 11.193C37.2521 11.1483 37.3757 11.1292 37.4991 11.1371H38.5031L38.4868 13.1529Z" fill="#E6E6E6"/>
<path d="M44.2266 15.5861C44.1406 15.5759 44.0535 15.5844 43.9709 15.6112C43.8884 15.638 43.8123 15.6825 43.7477 15.7416C43.6831 15.8007 43.6314 15.8732 43.596 15.9543C43.5605 16.0354 43.5422 16.1232 43.5422 16.2121C43.5422 16.301 43.5605 16.3889 43.596 16.4699C43.6314 16.551 43.6831 16.6235 43.7477 16.6826C43.8123 16.7418 43.8884 16.7862 43.9709 16.813C44.0535 16.8398 44.1406 16.8484 44.2266 16.8381C44.3761 16.8204 44.5141 16.7468 44.6143 16.6314C44.7145 16.5159 44.7698 16.3667 44.7698 16.2121C44.7698 16.0575 44.7145 15.9083 44.6143 15.7929C44.5141 15.6774 44.3761 15.6038 44.2266 15.5861Z" fill="#E6E6E6"/>
<path d="M54.7505 9.55543C54.9001 9.53767 55.0381 9.46407 55.1382 9.34864C55.2384 9.23321 55.2938 9.084 55.2938 8.9294C55.2938 8.7748 55.2384 8.62558 55.1382 8.51015C55.0381 8.39472 54.9001 8.32113 54.7505 8.30337C54.6645 8.29316 54.5774 8.30173 54.4949 8.32853C54.4123 8.35533 54.3363 8.39975 54.2716 8.45887C54.207 8.51799 54.1553 8.59048 54.1199 8.67157C54.0845 8.75267 54.0662 8.84053 54.0662 8.9294C54.0662 9.01827 54.0845 9.10614 54.1199 9.18723C54.1553 9.26832 54.207 9.3408 54.2716 9.39992C54.3363 9.45905 54.4123 9.50346 54.4949 9.53026C54.5774 9.55707 54.6645 9.56564 54.7505 9.55543Z" fill="#E6E6E6"/>
<path d="M58.417 13.2782C58.4221 13.3311 58.4163 13.3845 58.4 13.435C58.3838 13.4856 58.3573 13.532 58.3225 13.5713C58.2876 13.6107 58.245 13.6421 58.1976 13.6635C58.1502 13.6848 58.0989 13.6958 58.0471 13.6955H57.043V12.89C57.043 11.0328 56.2951 10.1647 54.7952 10.1647C53.8155 10.1647 52.97 10.8533 52.2831 11.6588V10.6154H51.2669V13.6872H49.8685V10.3483H48.8442V14.8224C48.8506 14.9434 48.8322 15.0645 48.7902 15.1777C48.7482 15.291 48.6836 15.3941 48.6005 15.4802C48.5174 15.5663 48.4177 15.6335 48.3077 15.6777C48.1978 15.7218 48.0801 15.7418 47.9621 15.7364H47.519V16.7798H47.9621C48.214 16.7855 48.4644 16.7387 48.6982 16.6424C48.932 16.546 49.1444 16.402 49.3225 16.2191C49.5007 16.0362 49.6409 15.8182 49.7347 15.5781C49.8286 15.3381 49.8741 15.081 49.8685 14.8224V14.7139H58.3804C58.5199 14.7184 58.6589 14.6939 58.7889 14.6419C58.919 14.5899 59.0375 14.5115 59.1374 14.4113C59.2372 14.3111 59.3163 14.1913 59.3699 14.059C59.4236 13.9266 59.4506 13.7846 59.4494 13.6412V8.42432H58.4373L58.417 13.2782ZM56.0634 13.6955H52.2831V12.6521C53.0676 11.7006 53.8684 11.2039 54.6692 11.2039C55.4699 11.2039 56.0634 11.6922 56.0634 12.8984V13.6955Z" fill="#E6E6E6"/>
<path d="M61.6484 8.42432H60.6362V14.7264H61.6484V8.42432Z" fill="#E6E6E6"/>
<path d="M64.754 10.102H64.6565C64.4012 10.0957 64.1474 10.1427 63.9104 10.2401C63.6734 10.3375 63.4581 10.4833 63.2775 10.6687C63.097 10.854 62.955 11.0751 62.8601 11.3184C62.7653 11.5618 62.7195 11.8224 62.7256 12.0845V12.7272C62.7191 13.245 62.9118 13.7445 63.2619 14.1173C63.612 14.4901 64.0913 14.7059 64.5955 14.718H65.6605V14.8932C65.6605 15.6278 65.1239 16.0243 63.3801 15.7071V16.6754C65.5223 17.1929 66.6767 16.4124 66.6767 15.1478V12.097C66.6856 11.8343 66.6422 11.5725 66.549 11.3277C66.4558 11.0829 66.3148 10.8602 66.1348 10.6734C65.9547 10.4865 65.7393 10.3395 65.5019 10.2412C65.2644 10.143 65.0099 10.0956 64.754 10.102ZM65.6605 13.6746H64.6036C64.3686 13.6616 64.1475 13.5558 63.9868 13.3791C63.8262 13.2025 63.7384 12.9688 63.7419 12.7272V12.0845C63.7355 11.9592 63.7547 11.834 63.7984 11.7169C63.842 11.5997 63.9091 11.4933 63.9953 11.4044C64.0814 11.3155 64.1848 11.2462 64.2987 11.2009C64.4126 11.1555 64.5345 11.1352 64.6565 11.1412H64.754C64.8757 11.1351 64.9972 11.1554 65.1107 11.2008C65.2242 11.2462 65.3271 11.3157 65.4126 11.4048C65.4982 11.4938 65.5645 11.6003 65.6072 11.7174C65.6499 11.8346 65.6681 11.9596 65.6605 12.0845V13.6746Z" fill="#E6E6E6"/>
<path d="M72.2823 9.49266C72.4319 9.4749 72.5699 9.4013 72.67 9.28587C72.7702 9.17044 72.8256 9.02124 72.8256 8.86663C72.8256 8.71203 72.7702 8.56282 72.67 8.44739C72.5699 8.33196 72.4319 8.25836 72.2823 8.2406C72.1327 8.25836 71.9947 8.33196 71.8945 8.44739C71.7944 8.56282 71.739 8.71203 71.739 8.86663C71.739 9.02124 71.7944 9.17044 71.8945 9.28587C71.9947 9.4013 72.1327 9.4749 72.2823 9.49266Z" fill="#E6E6E6"/>
<path d="M70.5546 9.4927C70.6757 9.49187 70.7938 9.45432 70.8941 9.38475C70.9944 9.31519 71.0724 9.21672 71.1184 9.10174C71.1644 8.98676 71.1762 8.86039 71.1524 8.73854C71.1285 8.61668 71.0702 8.50477 70.9846 8.41688C70.899 8.329 70.79 8.26906 70.6713 8.24461C70.5526 8.22016 70.4295 8.23229 70.3175 8.27947C70.2056 8.32665 70.1097 8.40678 70.0419 8.50978C69.9741 8.61277 69.9376 8.73403 69.9368 8.85832C69.9368 9.02656 70.0019 9.18793 70.1177 9.3069C70.2336 9.42586 70.3908 9.4927 70.5546 9.4927Z" fill="#E6E6E6"/>
<path d="M71.3108 10.0896H71.1725C70.9254 10.0891 70.6806 10.1385 70.452 10.2351C70.2235 10.3317 70.0157 10.4736 69.8406 10.6526C69.6654 10.8317 69.5263 11.0444 69.4313 11.2786C69.3362 11.5128 69.287 11.764 69.2864 12.0178V12.8066C69.2843 13.0611 69.3316 13.3136 69.4257 13.5491C69.5198 13.7845 69.6588 13.9984 69.8345 14.178C70.0102 14.3576 70.2191 14.4994 70.4488 14.595C70.6786 14.6906 70.9246 14.7381 71.1725 14.7348H71.3921C71.6294 14.7337 71.8642 14.6845 72.0831 14.5901C72.3019 14.4957 72.5004 14.3579 72.6673 14.1846C72.8342 14.0114 72.9662 13.806 73.0556 13.5802C73.1451 13.3545 73.1903 13.1129 73.1887 12.8692V12.0345C73.1914 11.7797 73.1448 11.5269 73.0516 11.2908C72.9584 11.0547 72.8204 10.8399 72.6457 10.659C72.471 10.4781 72.263 10.3346 72.0338 10.2368C71.8047 10.1391 71.5589 10.089 71.3108 10.0896ZM72.1766 12.8984C72.1771 12.9998 72.1582 13.1003 72.1209 13.1942C72.0836 13.2881 72.0286 13.3735 71.9592 13.4456C71.8897 13.5177 71.8071 13.575 71.7161 13.6143C71.6251 13.6536 71.5274 13.6741 71.4286 13.6747H71.1725C70.9429 13.6725 70.7233 13.5776 70.5612 13.4104C70.3992 13.2433 70.3078 13.0174 70.3067 12.7815V12.0178C70.3033 11.9003 70.3234 11.7833 70.3658 11.6741C70.4082 11.5649 70.4719 11.4658 70.553 11.3829C70.6342 11.2999 70.731 11.235 70.8376 11.192C70.9441 11.149 71.0581 11.1289 71.1725 11.133H71.3108C71.4252 11.1289 71.5392 11.149 71.6457 11.192C71.7523 11.235 71.8491 11.2999 71.9303 11.3829C72.0114 11.4658 72.0752 11.5649 72.1175 11.6741C72.1599 11.7833 72.18 11.9003 72.1766 12.0178V12.8984Z" fill="#E6E6E6"/>
<path d="M83.9525 9.5386C84.0739 9.53942 84.1928 9.50326 84.2942 9.4347C84.3956 9.36614 84.4749 9.26826 84.5221 9.15342C84.5693 9.03858 84.5822 8.91196 84.5593 8.78955C84.5364 8.66715 84.4787 8.55446 84.3934 8.46574C84.3082 8.37703 84.1992 8.31626 84.0803 8.29114C83.9614 8.26601 83.8379 8.27765 83.7254 8.32458C83.613 8.37152 83.5166 8.45164 83.4485 8.55481C83.3804 8.65798 83.3436 8.77958 83.3428 8.90422C83.3428 9.07103 83.4067 9.23113 83.5209 9.34986C83.635 9.4686 83.7901 9.5364 83.9525 9.5386Z" fill="#E6E6E6"/>
<path d="M86.0418 13.2782C86.047 13.3311 86.0412 13.3845 86.0249 13.435C86.0086 13.4856 85.9822 13.532 85.9473 13.5713C85.9125 13.6107 85.8699 13.6421 85.8225 13.6635C85.775 13.6848 85.7238 13.6958 85.6719 13.6955H84.4809V10.3567H83.4566V14.8307C83.4629 14.9514 83.4446 15.0721 83.4029 15.1851C83.3612 15.2981 83.2969 15.4009 83.2143 15.4869C83.1316 15.5729 83.0324 15.6403 82.9229 15.6847C82.8135 15.7291 82.6962 15.7495 82.5786 15.7447H82.1355V16.7881H82.5786C82.8301 16.7932 83.0801 16.7461 83.3134 16.6495C83.5467 16.5529 83.7586 16.4088 83.9363 16.2259C84.114 16.0431 84.2539 15.8252 84.3475 15.5855C84.4411 15.3457 84.4865 15.089 84.4809 14.8307V14.7222H86.0052C86.1441 14.7239 86.2819 14.6969 86.4104 14.6429C86.539 14.5889 86.6556 14.5089 86.7534 14.4077C86.8512 14.3064 86.9283 14.1861 86.9799 14.0537C87.0315 13.9213 87.0567 13.7796 87.054 13.6371V8.42432H86.0418V13.2782Z" fill="#E6E6E6"/>
<path d="M89.2734 8.42432H88.2612V14.7264H89.2734V8.42432Z" fill="#E6E6E6"/>
<path d="M93.3382 9.36742C93.5 9.36742 93.655 9.30147 93.7694 9.18406C93.8837 9.06666 93.948 8.90742 93.948 8.74139C93.948 8.57535 93.8837 8.41612 93.7694 8.29872C93.655 8.18132 93.5 8.11536 93.3382 8.11536C93.1765 8.11536 93.0214 8.18132 92.9071 8.29872C92.7928 8.41612 92.7285 8.57535 92.7285 8.74139C92.7285 8.90742 92.7928 9.06666 92.9071 9.18406C93.0214 9.30147 93.1765 9.36742 93.3382 9.36742Z" fill="#E6E6E6"/>
<path d="M95.0658 9.36742C95.2275 9.36742 95.3826 9.30147 95.4969 9.18406C95.6113 9.06666 95.6755 8.90742 95.6755 8.74139C95.6755 8.57535 95.6113 8.41612 95.4969 8.29872C95.3826 8.18132 95.2275 8.11536 95.0658 8.11536C94.9041 8.11536 94.749 8.18132 94.6346 8.29872C94.5203 8.41612 94.4561 8.57535 94.4561 8.74139C94.4561 8.90742 94.5203 9.06666 94.6346 9.18406C94.749 9.30147 94.9041 9.36742 95.0658 9.36742Z" fill="#E6E6E6"/>
<path d="M99.1754 9.05029H98.2486C98.1552 9.0014 98.0765 8.92749 98.0206 8.83639C97.9648 8.74528 97.9341 8.64037 97.9316 8.53277C97.9252 8.48886 97.9286 8.44404 97.9416 8.4017C97.9547 8.35937 97.9769 8.32064 98.0067 8.28845C98.0365 8.25626 98.073 8.23147 98.1135 8.21595C98.154 8.20043 98.1974 8.1946 98.2405 8.19889C98.4356 8.19889 98.5738 8.33661 98.6104 8.57868H99.1307C99.086 7.9443 98.7445 7.61877 98.2324 7.61877C98.1221 7.60902 98.0111 7.62372 97.9068 7.66186C97.8026 7.70001 97.7075 7.76072 97.6281 7.83988C97.5487 7.91903 97.4868 8.01478 97.4466 8.12065C97.4063 8.22652 97.3888 8.34002 97.395 8.45348C97.3904 8.66753 97.4661 8.87522 97.6064 9.0336H97.2893V9.62207H99.1754V9.05029Z" fill="#E6E6E6"/>
<path d="M100.724 15.5695C100.602 15.5687 100.483 15.6051 100.381 15.6742C100.279 15.7434 100.2 15.842 100.153 15.9576C100.106 16.0731 100.094 16.2004 100.118 16.3232C100.142 16.4459 100.201 16.5586 100.287 16.6468C100.374 16.735 100.484 16.7948 100.604 16.8185C100.723 16.8422 100.847 16.8287 100.96 16.7799C101.072 16.731 101.167 16.649 101.234 16.5441C101.301 16.4393 101.335 16.3165 101.334 16.1913C101.331 16.0267 101.265 15.8698 101.151 15.7537C101.038 15.6377 100.884 15.5716 100.724 15.5695Z" fill="#E6E6E6"/>
<path d="M102.456 15.5693C102.334 15.5676 102.214 15.6034 102.112 15.672C102.009 15.7406 101.929 15.8389 101.882 15.9544C101.835 16.0699 101.822 16.1973 101.845 16.3203C101.869 16.4434 101.927 16.5564 102.014 16.645C102.1 16.7337 102.21 16.7939 102.33 16.8179C102.45 16.842 102.574 16.8288 102.686 16.7801C102.799 16.7313 102.894 16.6493 102.961 16.5444C103.028 16.4394 103.063 16.3165 103.061 16.1911C103.059 16.0269 102.995 15.87 102.882 15.7538C102.768 15.6376 102.616 15.5714 102.456 15.5693Z" fill="#E6E6E6"/>
<path d="M105.789 10.2522V10.7781C105.441 10.862 105.131 11.0645 104.91 11.3525C104.688 11.6405 104.568 11.9971 104.569 12.364V12.844C104.569 13.1518 104.679 13.4489 104.878 13.6787H102.944C102.431 13.6787 102.265 13.3406 102.265 12.9358V12.8064C102.265 12.7146 102.265 12.6353 102.265 12.5518V10.4651H101.24V12.9692C101.24 13.3573 101.078 13.687 100.57 13.687H99.4843C98.964 13.687 98.8055 13.349 98.8055 12.9442V10.44H97.7933V12.9442C97.7933 13.3615 97.6511 13.687 97.1226 13.687H96.5942C96.5189 13.6895 96.4439 13.6758 96.3739 13.6469C96.304 13.618 96.2407 13.5746 96.1879 13.5192C96.1352 13.4639 96.0942 13.398 96.0676 13.3256C96.041 13.2532 96.0293 13.1759 96.0333 13.0986V10.0895H94.0008C93.7454 10.0848 93.4917 10.1334 93.255 10.2323C93.0184 10.3312 92.8037 10.4783 92.624 10.6648C92.4443 10.8513 92.3033 11.0732 92.2094 11.3172C92.1156 11.5612 92.071 11.8222 92.0781 12.0844V12.7063C92.0716 13.2259 92.2653 13.7271 92.617 14.1008C92.9688 14.4744 93.4501 14.6902 93.9561 14.7012C94.2131 14.7135 94.4696 14.668 94.7077 14.5678C94.9457 14.4676 95.1595 14.3151 95.3341 14.1211C95.4853 14.3139 95.6775 14.4687 95.8959 14.5736C96.1143 14.6785 96.3531 14.7307 96.5942 14.7263H97.1145C97.3364 14.7376 97.558 14.6982 97.7633 14.6108C97.9686 14.5235 98.1524 14.3904 98.3015 14.2213C98.4327 14.3733 98.5925 14.4964 98.7714 14.5832C98.9502 14.67 99.1444 14.7187 99.3421 14.7263H100.562C100.784 14.7376 101.006 14.6983 101.212 14.6109C101.418 14.5236 101.603 14.3905 101.753 14.2213C101.885 14.3739 102.046 14.4974 102.226 14.5842C102.407 14.671 102.602 14.7193 102.801 14.7263H108.451C108.701 14.7274 108.948 14.6778 109.178 14.5805C109.409 14.4832 109.618 14.3401 109.795 14.1593C109.971 13.9786 110.111 13.7638 110.206 13.5273C110.302 13.2908 110.35 13.0373 110.35 12.7814V12.1554C110.317 10.6696 108.521 9.5761 105.789 10.2522ZM95.0374 13.1737C94.9118 13.3351 94.7512 13.4641 94.5684 13.5504C94.3856 13.6366 94.1856 13.6777 93.9846 13.6704C93.8676 13.6666 93.7526 13.6392 93.646 13.5897C93.5394 13.5403 93.4433 13.4697 93.3633 13.3821C93.2833 13.2945 93.2208 13.1916 93.1796 13.0792C93.1383 12.9668 93.119 12.8472 93.1228 12.7271V12.1053C93.1126 11.9811 93.1278 11.8561 93.1674 11.7384C93.2071 11.6206 93.2703 11.5127 93.353 11.4215C93.4356 11.3303 93.536 11.2579 93.6476 11.2089C93.7592 11.1599 93.8795 11.1354 94.0008 11.137H95.0089L95.0374 13.1737ZM107.147 13.7079H106.265C106.049 13.6897 105.847 13.5909 105.697 13.4302C105.547 13.2694 105.46 13.0579 105.452 12.8356V12.4183C105.467 12.1958 105.563 11.9873 105.722 11.8351C105.881 11.6829 106.09 11.5983 106.307 11.5983C106.524 11.5983 106.734 11.6829 106.892 11.8351C107.051 11.9873 107.148 12.1958 107.163 12.4183L107.147 13.7079ZM108.443 13.7079H108.012V12.4559C108.031 12.1351 107.937 11.8182 107.748 11.5625C107.558 11.3068 107.286 11.1292 106.98 11.0619C108.309 10.9283 109.317 11.4792 109.342 12.1762V12.773C109.337 13.0177 109.239 13.2508 109.069 13.4218C108.899 13.5929 108.669 13.6882 108.431 13.687L108.443 13.7079Z" fill="#E6E6E6"/>
<path d="M81.6072 12.9985C81.6072 13.4553 81.431 13.8936 81.1172 14.2174C80.8033 14.5411 80.3774 14.7242 79.9325 14.7264H75.3473C75.2079 14.7286 75.0695 14.7021 74.9403 14.6484C74.811 14.5946 74.6937 14.5148 74.5951 14.4136C74.4965 14.3124 74.4187 14.1918 74.3664 14.0592C74.3141 13.9265 74.2882 13.7844 74.2904 13.6412V8.42432H75.3026V13.2782C75.2974 13.3314 75.3033 13.3853 75.3198 13.4361C75.3363 13.4869 75.3631 13.5335 75.3984 13.5729C75.4337 13.6123 75.4768 13.6436 75.5247 13.6647C75.5726 13.6859 75.6244 13.6964 75.6765 13.6955H79.8593C79.962 13.6936 80.0633 13.6701 80.1568 13.6264C80.2503 13.5827 80.3341 13.5198 80.4031 13.4416C80.472 13.3634 80.5246 13.2715 80.5576 13.1716C80.5906 13.0717 80.6034 12.9659 80.595 12.8608C80.595 12.289 80.1885 12.001 79.6235 12.001H76.9692L76.7862 11.2331L78.335 8.42432L79.2821 8.78741L78.0626 10.9577H79.6154C79.8777 10.9537 80.1381 11.0038 80.3812 11.1049C80.6243 11.2061 80.8452 11.3562 81.0309 11.5464C81.2165 11.7366 81.3632 11.9632 81.4622 12.2126C81.5612 12.462 81.6105 12.7292 81.6072 12.9985Z" fill="#E6E6E6"/>
<path d="M3.71602 23.9039V24.7387H0.000732422V24.0751L2.40713 20.4232H0.147068V19.5885H3.61847V20.2563L1.22832 23.8956L3.71602 23.9039Z" fill="#E6E6E6"/>
<path d="M4.78911 21.6835L4.63465 21.0742C5.81752 20.565 7.43534 20.5274 7.43534 22.1343V24.7135H6.5492V24.2461C6.40331 24.414 6.22404 24.5478 6.02349 24.6385C5.82294 24.7292 5.60578 24.7747 5.38665 24.7719C5.25376 24.7782 5.12109 24.7554 4.99736 24.7053C4.87363 24.6551 4.76164 24.5787 4.66873 24.4809C4.57583 24.3832 4.50412 24.2663 4.45831 24.1381C4.4125 24.0099 4.39364 23.8731 4.40295 23.7369C4.40295 22.8813 5.21592 22.297 6.55733 22.3555V22.1551C6.55733 21.2453 5.63054 21.3538 4.78911 21.6835ZM5.22812 23.6242C5.22812 23.9331 5.46794 24.0833 5.76875 24.0833C5.91688 24.083 6.06337 24.0514 6.19906 23.9903C6.33474 23.9293 6.45671 23.8402 6.55733 23.7285V22.8938C5.65086 22.777 5.22812 23.2653 5.22812 23.6242Z" fill="#E6E6E6"/>
<path d="M12.423 21.6835L12.2686 21.0742C13.4514 20.565 15.0652 20.5274 15.0652 22.1343V24.7135H14.1831V24.2461C14.037 24.4138 13.8577 24.5474 13.6572 24.6381C13.4567 24.7288 13.2396 24.7745 13.0206 24.7719C12.8875 24.7781 12.7547 24.7554 12.6308 24.7053C12.5068 24.6551 12.3946 24.5787 12.3014 24.4811C12.2082 24.3834 12.1361 24.2666 12.0898 24.1384C12.0435 24.0102 12.0241 23.8734 12.0328 23.7369C12.0328 22.8813 12.8458 22.297 14.1912 22.3555V22.1551C14.1912 21.2453 13.2604 21.3538 12.423 21.6835ZM12.858 23.6242C12.858 23.9331 13.1019 24.0833 13.3986 24.0833C13.5507 24.0857 13.7016 24.0554 13.8417 23.9943C13.9817 23.9332 14.1077 23.8427 14.2116 23.7285V22.8938C13.2848 22.777 12.858 23.2653 12.858 23.6242Z" fill="#E6E6E6"/>
<path d="M17.0527 23.7454C17.0468 23.7972 17.0525 23.8498 17.0692 23.8991C17.0859 23.9484 17.1133 23.9932 17.1492 24.0302C17.1852 24.0671 17.2288 24.0952 17.2769 24.1124C17.3249 24.1295 17.3761 24.1353 17.4266 24.1293C17.5374 24.1293 17.6478 24.1167 17.7559 24.0918V24.7428C17.5286 24.7798 17.299 24.7993 17.0689 24.8013C16.3901 24.8013 16.1706 24.4423 16.1706 23.8288V21.7421H15.7031L15.821 21.0576H16.1706V20.1436L17.0527 19.9182V21.0576H17.8006L17.6827 21.7421H17.0527V23.7454Z" fill="#E6E6E6"/>
<path d="M19.1015 25.9657H18.5649C18.707 25.4354 18.8049 24.8937 18.8576 24.3464V24.0751H19.5161L19.4877 24.338C19.414 24.8928 19.2846 25.4383 19.1015 25.9657Z" fill="#E6E6E6"/>
<path d="M23.0567 20.4149V24.7262H22.0933V20.4149H20.7275V19.5802H24.4306V20.4149H23.0567Z" fill="#E6E6E6"/>
<path d="M25.5322 21.6835L25.3818 21.0742C26.5647 20.565 28.1785 20.5274 28.1785 22.1343V24.7135H27.2964V24.2461C27.1503 24.4138 26.971 24.5474 26.7705 24.6381C26.57 24.7288 26.3529 24.7745 26.1338 24.7719C26.0008 24.7781 25.868 24.7554 25.744 24.7053C25.6201 24.6551 25.5079 24.5787 25.4147 24.4811C25.3214 24.3834 25.2493 24.2666 25.2031 24.1384C25.1568 24.0102 25.1374 23.8734 25.1461 23.7369C25.1461 22.8813 25.959 22.297 27.3005 22.3555V22.1551C27.3005 21.2453 26.3737 21.3538 25.5322 21.6835ZM25.9712 23.6242C25.9712 23.9331 26.2151 24.0833 26.5119 24.0833C26.66 24.0833 26.8066 24.0517 26.9423 23.9907C27.078 23.9296 27.2 23.8404 27.3005 23.7285V22.8938C26.3981 22.777 25.9712 23.2653 25.9712 23.6242Z" fill="#E6E6E6"/>
<path d="M29.975 20.9449L30.4953 21.7504L30.7961 22.3139L31.1091 21.7337L31.6131 20.9449H32.5318L31.3367 22.7938L32.5562 24.7262H31.4993L30.979 23.9332L30.6741 23.3573L30.3652 23.9415L29.8693 24.7262H28.8896L30.1335 22.7938L28.914 20.9449H29.975Z" fill="#E6E6E6"/>
<path d="M35.2229 21.6835L35.0684 21.0742C36.2554 20.565 37.8691 20.5274 37.8691 22.1343V24.7135H36.983V24.2461C36.8379 24.4139 36.6594 24.5477 36.4595 24.6384C36.2596 24.7291 36.043 24.7747 35.8245 24.7719C35.6915 24.7781 35.5586 24.7554 35.4347 24.7053C35.3108 24.6551 35.1986 24.5787 35.1053 24.4811C35.0121 24.3834 34.94 24.2666 34.8937 24.1384C34.8475 24.0102 34.828 23.8734 34.8367 23.7369C34.8367 22.8813 35.6497 22.297 36.9911 22.3555V22.1551C36.9911 21.2453 36.0643 21.3538 35.2229 21.6835ZM35.6619 23.6242C35.6619 23.9331 35.9017 24.0833 36.2025 24.0833C36.3507 24.0833 36.4973 24.0517 36.633 23.9907C36.7687 23.9296 36.8907 23.8404 36.9911 23.7285V22.8938C36.0847 22.777 35.6619 23.2653 35.6619 23.6242Z" fill="#E6E6E6"/>
<path d="M38.8203 24.7135V20.9573H39.7024V21.3037C40.05 21.0248 40.4807 20.8774 40.9218 20.8864C41.6535 20.8864 42.0234 21.3037 42.0234 22.1092V24.726H41.1414V22.4055C41.1414 21.9882 40.9584 21.7628 40.5438 21.7628C40.244 21.7874 39.9595 21.9087 39.7308 22.1092V24.726L38.8203 24.7135Z" fill="#E6E6E6"/>
<path d="M44.2712 24.7722C43.3078 24.7722 42.8525 23.9375 42.8525 22.8064C42.8525 21.6754 43.3485 20.8407 44.32 20.8407C44.498 20.839 44.6744 20.8752 44.8381 20.9471C45.0018 21.0189 45.1493 21.1248 45.2711 21.258V19.5677H46.1491V24.7137H45.2711V24.3214C45.143 24.4624 44.9883 24.575 44.8164 24.6525C44.6444 24.73 44.4589 24.7707 44.2712 24.7722ZM44.5923 21.5752C44.072 21.5752 43.7793 22.0218 43.7793 22.8273C43.7793 23.6328 44.0761 24.0585 44.5923 24.0585C44.8402 24.0554 45.0797 23.9656 45.2711 23.8039V21.8549C45.0825 21.6843 44.8433 21.5843 44.5923 21.5711V21.5752Z" fill="#E6E6E6"/>
<path d="M50.9416 24.8011C49.34 24.8011 48.6855 23.7285 48.6855 22.1635C48.6855 20.5984 49.34 19.5216 50.9416 19.5216C51.5243 19.5265 52.0994 19.6588 52.6285 19.9097V20.6693C52.1184 20.481 51.5844 20.3699 51.0432 20.3396C50.1326 20.3396 49.6489 20.9531 49.6489 22.1635C49.6489 23.3738 50.1326 23.979 51.0432 23.979C51.5843 23.9506 52.1184 23.8409 52.6285 23.6534V24.413C52.0994 24.664 51.5243 24.7963 50.9416 24.8011Z" fill="#E6E6E6"/>
<path d="M56.7503 20.9449V24.7262H55.8683V24.3589C55.5317 24.6466 55.1071 24.8032 54.6691 24.8013C53.9293 24.8013 53.5635 24.3589 53.5635 23.5785V20.9449H54.4496V23.2821C54.4496 23.6995 54.6325 23.9249 55.0472 23.9249C55.3463 23.8978 55.6302 23.7768 55.8601 23.5785V20.9449H56.7503Z" fill="#E6E6E6"/>
<path d="M57.5918 24.5176V23.8414C57.9906 24.0346 58.4234 24.1426 58.8641 24.1586C59.4129 24.1586 59.5592 23.8874 59.5592 23.6995C59.5592 23.3991 59.2056 23.2822 58.8031 23.1361C58.2869 22.9567 57.665 22.7188 57.665 21.9675C57.665 21.2163 58.2219 20.7155 59.2584 20.7155C59.6919 20.7148 60.1195 20.8192 60.5063 21.0201V21.6879C60.1993 21.4974 59.8487 21.3937 59.4901 21.3874C58.9129 21.3874 58.6771 21.6587 58.6771 21.8841C58.6771 22.1971 59.0836 22.3014 59.4901 22.485C60.0023 22.6729 60.5713 22.9024 60.5713 23.5952C60.5713 24.384 59.921 24.8473 59.0308 24.8473C58.5339 24.842 58.0437 24.7297 57.5918 24.5176Z" fill="#E6E6E6"/>
<path d="M62.4087 23.7453C62.4022 23.797 62.4072 23.8495 62.4234 23.8988C62.4396 23.9482 62.4666 23.9931 62.5023 24.0301C62.5379 24.0672 62.5814 24.0953 62.6293 24.1125C62.6772 24.1297 62.7282 24.1354 62.7786 24.1293C62.89 24.124 63.0005 24.1058 63.1079 24.075V24.7261C62.8806 24.763 62.651 24.7826 62.4209 24.7845C61.7421 24.7845 61.5226 24.4256 61.5226 23.8121V21.7253H61.0754L61.1933 21.0409H61.5429V20.1269L62.429 19.9015V21.0409H63.1729L63.055 21.7253H62.429L62.4087 23.7453Z" fill="#E6E6E6"/>
<path d="M63.7461 22.823C63.7461 21.7129 64.2867 20.8573 65.4615 20.8573C66.6362 20.8573 67.1728 21.6962 67.1728 22.823C67.1728 23.9499 66.6322 24.7888 65.4533 24.7888C64.2745 24.7888 63.7461 23.9165 63.7461 22.823ZM64.5591 22.823C64.5591 23.5576 64.8436 24.1377 65.4574 24.1377C66.0712 24.1377 66.3598 23.5409 66.3598 22.823C66.3598 22.1052 66.0875 21.5125 65.4737 21.5125C64.8599 21.5125 64.5631 22.0718 64.5631 22.823H64.5591Z" fill="#E6E6E6"/>
<path d="M73.4774 22.0969V24.7137H72.5954V22.4057C72.5954 21.9884 72.4124 21.763 71.9938 21.763C71.693 21.7865 71.4077 21.9095 71.1808 22.1136C71.187 22.2108 71.187 22.3084 71.1808 22.4057V24.7262H70.3028V22.4057C70.3028 21.9884 70.1199 21.763 69.7052 21.763C69.412 21.7846 69.1343 21.9065 68.9167 22.1094V24.7262H68.0305V20.97H68.9167V21.475C69.06 21.2993 69.2382 21.1571 69.4394 21.0577C69.6406 20.9584 69.8601 20.9043 70.0833 20.8991C70.2909 20.8741 70.5008 20.9219 70.6786 21.0348C70.8564 21.1477 70.9919 21.319 71.0629 21.5209C71.2246 21.332 71.4225 21.1793 71.6442 21.0723C71.8659 20.9653 72.1066 20.9064 72.3515 20.8991C73.1116 20.874 73.4774 21.3081 73.4774 22.0969Z" fill="#E6E6E6"/>
<path d="M74.3188 24.5176V23.8414C74.7176 24.0346 75.1505 24.1426 75.5912 24.1586C76.1399 24.1586 76.2862 23.8874 76.2862 23.6995C76.2862 23.399 75.9326 23.2822 75.5302 23.1361C75.0139 22.9566 74.392 22.7188 74.392 21.9675C74.392 21.2163 74.9489 20.7155 75.9854 20.7155C76.4189 20.7154 76.8463 20.8198 77.2334 21.0201V21.6879C76.9264 21.4974 76.5758 21.3937 76.2171 21.3874C75.6399 21.3874 75.4042 21.6587 75.4042 21.884C75.4042 22.1971 75.8107 22.3014 76.2171 22.485C76.7293 22.6728 77.2984 22.9024 77.2984 23.5952C77.2984 24.384 76.648 24.8473 75.7578 24.8473C75.261 24.842 74.7707 24.7297 74.3188 24.5176Z" fill="#E6E6E6"/>
<path d="M80.859 23.4908L80.4728 24.7429H79.5298L81.3996 19.5593H82.1882L83.993 24.7262H83.0256L82.6191 23.4741L80.859 23.4908ZM81.0338 22.7563H82.4443L81.7411 20.5944L81.0338 22.7563Z" fill="#E6E6E6"/>
<path d="M87.8791 20.9449V24.7262H86.997V24.3589C86.6604 24.6466 86.2358 24.8032 85.7979 24.8013C85.0621 24.8013 84.6963 24.3589 84.6963 23.5785V20.9449H85.5784V23.2821C85.5784 23.6995 85.7613 23.9249 86.18 23.9249C86.4792 23.8978 86.763 23.7768 86.993 23.5785V20.9449H87.8791Z" fill="#E6E6E6"/>
<path d="M89.8669 23.7454C89.861 23.7972 89.8667 23.8498 89.8834 23.8991C89.9001 23.9484 89.9275 23.9932 89.9634 24.0302C89.9994 24.0671 90.043 24.0952 90.0911 24.1124C90.1391 24.1295 90.1903 24.1353 90.2408 24.1293C90.3516 24.1293 90.462 24.1167 90.5701 24.0918V24.7428C90.3428 24.7798 90.1132 24.7993 89.8831 24.8013C89.2043 24.8013 88.9848 24.4423 88.9848 23.8288V21.7421H88.5173L88.6352 21.0576H88.9848V20.1436L89.8669 19.9182V21.0576H90.6148L90.4969 21.7421H89.8669V23.7454Z" fill="#E6E6E6"/>
<path d="M94.4642 22.0968V24.7136H93.5943V22.4056C93.5943 21.9882 93.4033 21.7754 93.0537 21.7712C92.7334 21.7847 92.4256 21.9031 92.1757 22.1093V24.7261H91.2773V19.5968H92.1635V21.2662C92.4814 21.0107 92.8697 20.8646 93.2732 20.8489C93.4353 20.8343 93.5985 20.8569 93.7511 20.9148C93.9037 20.9728 94.0419 21.0647 94.1558 21.184C94.2696 21.3033 94.3563 21.447 94.4097 21.6049C94.463 21.7627 94.4816 21.9307 94.4642 22.0968Z" fill="#E6E6E6"/>
<path d="M95.3137 22.823C95.3137 21.7129 95.8543 20.8573 97.0291 20.8573C98.2038 20.8573 98.7485 21.7129 98.7485 22.823C98.7485 23.9332 98.2079 24.7888 97.0291 24.7888C95.8503 24.7888 95.3137 23.9165 95.3137 22.823ZM96.1267 22.823C96.1267 23.5576 96.4112 24.1377 97.025 24.1377C97.6388 24.1377 97.9112 23.5576 97.9112 22.823C97.9112 22.0885 97.6388 21.5125 97.025 21.5125C96.4112 21.5125 96.1308 22.0718 96.1308 22.823H96.1267Z" fill="#E6E6E6"/>
<path d="M99.6226 24.7136V20.9574H100.505V21.6794C100.627 21.4531 100.808 21.2656 101.028 21.1376C101.247 21.0095 101.496 20.9457 101.748 20.9532V21.6627C101.499 21.6482 101.25 21.7053 101.031 21.8277C100.811 21.95 100.629 22.1328 100.505 22.3555V24.7261L99.6226 24.7136Z" fill="#E6E6E6"/>
<path d="M102.366 20.1352C102.368 20.0433 102.396 19.9539 102.447 19.8783C102.498 19.8026 102.569 19.744 102.652 19.7098C102.735 19.6755 102.826 19.6672 102.914 19.6859C103.002 19.7045 103.082 19.7492 103.145 19.8145C103.208 19.8798 103.251 19.9627 103.268 20.0529C103.286 20.143 103.277 20.2365 103.243 20.3215C103.209 20.4064 103.151 20.4793 103.077 20.5308C103.003 20.5823 102.915 20.6102 102.826 20.611C102.765 20.611 102.705 20.5987 102.649 20.5747C102.593 20.5507 102.542 20.5156 102.5 20.4714C102.457 20.4272 102.423 20.3747 102.4 20.317C102.377 20.2593 102.366 20.1975 102.366 20.1352ZM103.277 24.7261H102.395V21.0576H103.277V24.7261Z" fill="#E6E6E6"/>
<path d="M105.513 23.7454C105.507 23.7972 105.512 23.8498 105.529 23.8991C105.546 23.9484 105.573 23.9932 105.609 24.0302C105.645 24.0671 105.689 24.0952 105.737 24.1124C105.785 24.1295 105.836 24.1353 105.887 24.1293C105.997 24.1293 106.108 24.1167 106.216 24.0918V24.7428C105.989 24.7798 105.759 24.7993 105.529 24.8013C104.85 24.8013 104.631 24.4423 104.631 23.8288V21.7421H104.163L104.281 21.0576H104.631V20.1436L105.513 19.9182V21.0576H106.261L106.143 21.7421H105.513V23.7454Z" fill="#E6E6E6"/>
<path d="M110.382 20.9449L108.606 26.0784H107.764L108.138 24.9891L106.675 20.9449H107.671L108.541 23.8664L109.427 20.9449H110.382Z" fill="#E6E6E6"/>
<path d="M11.4556 24.7094H10.4191L9.25244 22.9774V24.7094H8.37036V19.5968H9.25244V22.5099L10.354 20.8614H11.3458L10.0288 22.6852L11.4556 24.7094Z" fill="#E6E6E6"/>
<path d="M131.791 0.180688L118.49 9.49255L118.662 9.75119L131.962 0.43932L131.791 0.180688Z" fill="url(#paint0_linear_68016_5206)"/>
<path d="M129.159 0.339875L118.5 7.7998L118.672 8.05847L129.331 0.598538L129.159 0.339875Z" fill="url(#paint1_linear_68016_5206)"/>
<path d="M125.926 0.89466L118.51 6.10266L118.682 6.36105L126.098 1.15305L125.926 0.89466Z" fill="url(#paint2_linear_68016_5206)"/>
<path d="M121.592 2.22888L118.517 4.4104L118.69 4.66795L121.766 2.48644L121.592 2.22888Z" fill="url(#paint3_linear_68016_5206)"/>
<path d="M138.635 12.2066V12.2035L136.479 13.7123V13.7154L125.387 21.482L125.616 21.8263L124.11 22.9094L124.225 23.0816L121.018 25.3793L121.195 25.636L124.732 23.1004V23.0973L125.902 22.2583L137.168 14.3728L136.936 14.0222L138.921 12.6355L138.808 12.4664L146.043 7.39829L145.873 7.1416L138.635 12.2066Z" fill="url(#paint4_linear_68016_5206)"/>
<path d="M139.247 13.4619V13.4588L136.939 15.0741L136.942 15.0772L126.207 22.5933L126.433 22.9345L124.82 24.0896L124.933 24.2587L121.789 26.5188L121.963 26.7755L125.106 24.5122L125.11 24.5185L126.719 23.3665H126.722L137.491 15.8285L137.259 15.481L139.534 13.8908L139.421 13.7217L146.034 9.08872L145.863 8.83203L139.247 13.4619Z" fill="url(#paint5_linear_68016_5206)"/>
<path d="M139.839 14.7327L139.836 14.7296L137.924 16.0694H137.927L126.969 23.7389L127.198 24.0832L125.719 25.1413L125.832 25.3104L122.655 27.5956L122.829 27.8522L126.006 25.567L126.009 25.5702L127.485 24.5152L138.445 16.8426L138.214 16.4951L140.122 15.1616L140.01 14.9926L146.025 10.7822L145.854 10.5223L139.839 14.7327Z" fill="url(#paint6_linear_68016_5206)"/>
<path d="M140.738 15.7877V15.7846L138.842 17.1087L138.845 17.1118L127.765 24.8345L128 25.1883L126.11 26.5437L126.226 26.7159L123.604 28.5973L123.777 28.854L126.774 26.7034L128.79 25.2572L139.458 17.8224L139.229 17.4718L141.022 16.2166L140.912 16.0444L146.016 12.4726L145.842 12.2128L140.738 15.7877Z" fill="url(#paint7_linear_68016_5206)"/>
<path d="M141.851 16.6893L141.848 16.6862L139.775 18.1356L139.778 18.1387L130.165 24.8691L130.393 25.2103L128.119 26.8381L128.238 27.0103L124.686 29.5584L124.863 29.8151L128.726 27.0416L130.677 25.6392L130.68 25.6454L140.351 18.8744L140.119 18.5269L142.135 17.1151L142.022 16.946L146.007 14.1568L145.833 13.9001L141.851 16.6893Z" fill="url(#paint8_linear_68016_5206)"/>
<path d="M144.315 16.7707L144.257 16.6862L141.827 18.386L132.525 24.9004L132.753 25.2479L130.247 27.0478L130.363 27.2169L125.963 30.3755L126.14 30.6322L130.848 27.2513L133.272 25.5139L142.342 19.1624L142.113 18.818L144.543 17.1151L144.4 16.9022L144.488 17.0274L145.998 15.9318L145.821 15.6782L144.315 16.7707Z" fill="url(#paint9_linear_68016_5206)"/>
<path d="M144.357 18.3014H144.354L142.985 19.2593L137.513 23.0878L137.744 23.4353L135.427 25.0975L135.546 25.2697L127.198 31.2613L127.372 31.5148L136.049 25.2916L138.08 23.8328H138.077L143.501 20.0357L143.272 19.6882L144.641 18.7303L144.528 18.5612L145.961 17.5595L145.79 17.2997L144.357 18.3014Z" fill="url(#paint10_linear_68016_5206)"/>
<path d="M144.629 19.8573L144.601 19.8134L143.308 20.7181V20.715L138.964 23.7546L139.195 24.1021L137.174 25.5546L137.29 25.7268L128.494 32.0377L128.668 32.2944L137.915 25.6579L139.689 24.3838L143.824 21.4913L143.595 21.147L144.888 20.2454L144.744 20.0294L145.729 19.3408L145.613 19.1686L144.629 19.8573Z" fill="url(#paint11_linear_68016_5206)"/>
<path d="M119.716 11.4679L120.951 10.582L125.625 7.31068L125.396 6.96634L127.451 5.52636L127.338 5.35731L134.259 0.514582L134.086 0.254761L127.168 5.10062L127.165 5.09749L125.11 6.53435L120.161 9.99657L120.393 10.3472L119.216 11.1893L119.335 11.3614L118.475 11.9781L118.649 12.2348L119.716 11.4679Z" fill="url(#paint12_linear_68016_5206)"/>
<path d="M120.491 12.6072L121.71 11.7307L127.491 7.68625L127.262 7.34191L128.857 6.22435L128.75 6.0647L136.281 0.743021L136.11 0.486328L128.579 5.80801L128.57 5.79549L126.976 6.90991L120.829 11.2142L121.061 11.5617L120.003 12.3224L120.119 12.4945L118.463 13.681L118.64 13.9377L120.491 12.6072Z" fill="url(#paint13_linear_68016_5206)"/>
<path d="M120.765 14.1067V14.1036L122.384 12.9422L128.677 8.53775L128.442 8.18401L130.134 7.00072L130.027 6.83794L138.15 1.09991L137.979 0.840088L129.857 6.58125L129.848 6.56872L128.085 7.8021L128.091 7.81149L121.494 12.4288L121.728 12.7794L120.301 13.8L120.42 13.9721L118.454 15.3808L118.631 15.6375L120.765 14.1067Z" fill="url(#paint14_linear_68016_5206)"/>
<path d="M121.414 15.337L123.18 14.0691L129.866 9.3892L129.634 9.04172L131.418 7.79269L131.299 7.61426L140 1.59137L139.83 1.33154L131.012 7.43583L131.018 7.44209L129.341 8.61599L122.161 13.6434L122.396 13.9971L120.753 15.1742L120.872 15.3464L118.466 17.0712L118.64 17.3279L121.414 15.337Z" fill="url(#paint15_linear_68016_5206)"/>
<path d="M122.204 16.4514L123.344 15.6343V15.6374L131.052 10.2406L130.823 9.89316L132.817 8.497L132.705 8.32796L141.452 2.20489L141.281 1.94507L132.531 8.07126V8.06814L130.525 9.47055V9.47369L122.829 14.8611L123.058 15.2055L121.585 16.2604L121.701 16.4357L118.606 18.652L118.783 18.9087L122.207 16.4576L122.204 16.4514Z" fill="url(#paint16_linear_68016_5206)"/>
<path d="M122.972 17.6033L124.271 16.6705L132.238 11.0921L132.009 10.7446L134.217 9.20132L134.104 9.03228L143.089 2.74017L142.918 2.48035L133.933 8.77246L133.93 8.76932L131.592 10.4065V10.4097L123.497 16.0757L123.726 16.4232L122.338 17.4218L122.454 17.5939L118.881 20.1577L119.055 20.4144L122.972 17.6033Z" fill="url(#paint17_linear_68016_5206)"/>
<path d="M123.195 19.1404L125.058 17.8037L134.464 11.258L134.232 10.9074L136.311 9.45179L136.199 9.28275L144.546 3.43829L144.373 3.17847L136.028 9.02293L136.025 9.0198L133.878 10.5224L133.884 10.5255L124.116 17.3248L124.348 17.6785L122.604 18.9275L122.722 19.0997L119.268 21.5758L119.442 21.8325L123.195 19.1435V19.1404Z" fill="url(#paint18_linear_68016_5206)"/>
<path d="M123.424 20.6555L125.073 19.4753L135.287 12.3224L135.058 11.9811L137.147 10.5192L137.037 10.3502L145.863 4.16766L145.693 3.90784L136.863 10.0904V10.0872L134.772 11.5491L124.329 18.8586L124.561 19.203L122.796 20.4739L122.911 20.6461L119.756 22.9094L119.93 23.1661L123.427 20.6586L123.424 20.6555Z" fill="url(#paint19_linear_68016_5206)"/>
<path d="M123.75 22.105L125.146 21.1033H125.149L136.049 13.4713L135.821 13.1301L137.814 11.7308L137.702 11.5618L146.056 5.71421L145.882 5.45752L137.531 11.3051L137.528 11.302L135.534 12.6981V12.695L124.634 20.3269L124.86 20.6713L123.213 21.8546L123.335 22.033L120.335 24.1648L120.509 24.4246L123.756 22.1144L123.75 22.105Z" fill="url(#paint20_linear_68016_5206)"/>
<path d="M144.84 22.0081L129.761 32.7964L129.936 33.0532L145.015 22.2649L144.84 22.0081Z" fill="url(#paint21_linear_68016_5206)"/>
<path d="M143.726 24.5319L131.027 33.635L131.201 33.8917L143.901 24.7886L143.726 24.5319Z" fill="url(#paint22_linear_68016_5206)"/>
<path d="M141.107 28.1209L135.527 32.1205L135.701 32.3772L141.281 28.3775L141.107 28.1209Z" fill="url(#paint23_linear_68016_5206)"/>
<defs>
<linearGradient id="paint0_linear_68016_5206" x1="137.448" y1="-6.12094" x2="110.043" y2="17.4627" gradientUnits="userSpaceOnUse">
<stop stop-color="#62B34F"/>
<stop offset="0.46" stop-color="#05D0CB"/>
<stop offset="1" stop-color="#0996D4"/>
</linearGradient>
<linearGradient id="paint1_linear_68016_5206" x1="136.506" y1="-7.22557" x2="109.097" y2="16.358" gradientUnits="userSpaceOnUse">
<stop stop-color="#62B34F"/>
<stop offset="0.46" stop-color="#05D0CB"/>
<stop offset="1" stop-color="#0996D4"/>
</linearGradient>
<linearGradient id="paint2_linear_68016_5206" x1="135.524" y1="-8.36211" x2="108.119" y2="15.2216" gradientUnits="userSpaceOnUse">
<stop stop-color="#62B34F"/>
<stop offset="0.46" stop-color="#05D0CB"/>
<stop offset="1" stop-color="#0996D4"/>
</linearGradient>
<linearGradient id="paint3_linear_68016_5206" x1="134.487" y1="-9.56548" x2="107.082" y2="14.0182" gradientUnits="userSpaceOnUse">
<stop stop-color="#62B34F"/>
<stop offset="0.46" stop-color="#05D0CB"/>
<stop offset="1" stop-color="#0996D4"/>
</linearGradient>
<linearGradient id="paint4_linear_68016_5206" x1="146.61" y1="4.52459" x2="119.205" y2="28.1083" gradientUnits="userSpaceOnUse">
<stop stop-color="#62B34F"/>
<stop offset="0.46" stop-color="#05D0CB"/>
<stop offset="1" stop-color="#0996D4"/>
</linearGradient>
<linearGradient id="paint5_linear_68016_5206" x1="147.461" y1="5.51067" x2="120.056" y2="29.0943" gradientUnits="userSpaceOnUse">
<stop stop-color="#62B34F"/>
<stop offset="0.46" stop-color="#05D0CB"/>
<stop offset="1" stop-color="#0996D4"/>
</linearGradient>
<linearGradient id="paint6_linear_68016_5206" x1="148.318" y1="6.50603" x2="120.913" y2="30.0928" gradientUnits="userSpaceOnUse">
<stop stop-color="#62B34F"/>
<stop offset="0.46" stop-color="#05D0CB"/>
<stop offset="1" stop-color="#0996D4"/>
</linearGradient>
<linearGradient id="paint7_linear_68016_5206" x1="149.175" y1="7.50152" x2="121.769" y2="31.0852" gradientUnits="userSpaceOnUse">
<stop stop-color="#62B34F"/>
<stop offset="0.46" stop-color="#05D0CB"/>
<stop offset="1" stop-color="#0996D4"/>
</linearGradient>
<linearGradient id="paint8_linear_68016_5206" x1="150.049" y1="8.51899" x2="122.644" y2="32.1027" gradientUnits="userSpaceOnUse">
<stop stop-color="#62B34F"/>
<stop offset="0.46" stop-color="#05D0CB"/>
<stop offset="1" stop-color="#0996D4"/>
</linearGradient>
<linearGradient id="paint9_linear_68016_5206" x1="150.955" y1="9.57081" x2="123.547" y2="33.1544" gradientUnits="userSpaceOnUse">
<stop stop-color="#62B34F"/>
<stop offset="0.46" stop-color="#05D0CB"/>
<stop offset="1" stop-color="#0996D4"/>
</linearGradient>
<linearGradient id="paint10_linear_68016_5206" x1="151.882" y1="10.6476" x2="124.477" y2="34.2312" gradientUnits="userSpaceOnUse">
<stop stop-color="#62B34F"/>
<stop offset="0.46" stop-color="#05D0CB"/>
<stop offset="1" stop-color="#0996D4"/>
</linearGradient>
<linearGradient id="paint11_linear_68016_5206" x1="152.775" y1="11.6869" x2="125.37" y2="35.2737" gradientUnits="userSpaceOnUse">
<stop stop-color="#62B34F"/>
<stop offset="0.46" stop-color="#05D0CB"/>
<stop offset="1" stop-color="#0996D4"/>
</linearGradient>
<linearGradient id="paint12_linear_68016_5206" x1="138.458" y1="-4.94797" x2="111.053" y2="18.6357" gradientUnits="userSpaceOnUse">
<stop stop-color="#62B34F"/>
<stop offset="0.46" stop-color="#05D0CB"/>
<stop offset="1" stop-color="#0996D4"/>
</linearGradient>
<linearGradient id="paint13_linear_68016_5206" x1="139.397" y1="-3.85867" x2="111.992" y2="19.725" gradientUnits="userSpaceOnUse">
<stop stop-color="#62B34F"/>
<stop offset="0.46" stop-color="#05D0CB"/>
<stop offset="1" stop-color="#0996D4"/>
</linearGradient>
<linearGradient id="paint14_linear_68016_5206" x1="140.333" y1="-2.7724" x2="112.927" y2="20.8144" gradientUnits="userSpaceOnUse">
<stop stop-color="#62B34F"/>
<stop offset="0.46" stop-color="#05D0CB"/>
<stop offset="1" stop-color="#0996D4"/>
</linearGradient>
<linearGradient id="paint15_linear_68016_5206" x1="141.299" y1="-1.65173" x2="113.891" y2="21.9319" gradientUnits="userSpaceOnUse">
<stop stop-color="#62B34F"/>
<stop offset="0.46" stop-color="#05D0CB"/>
<stop offset="1" stop-color="#0996D4"/>
</linearGradient>
<linearGradient id="paint16_linear_68016_5206" x1="142.196" y1="-0.60934" x2="114.788" y2="22.9743" gradientUnits="userSpaceOnUse">
<stop stop-color="#62B34F"/>
<stop offset="0.46" stop-color="#05D0CB"/>
<stop offset="1" stop-color="#0996D4"/>
</linearGradient>
<linearGradient id="paint17_linear_68016_5206" x1="143.107" y1="0.451847" x2="115.702" y2="24.0355" gradientUnits="userSpaceOnUse">
<stop stop-color="#62B34F"/>
<stop offset="0.46" stop-color="#05D0CB"/>
<stop offset="1" stop-color="#0996D4"/>
</linearGradient>
<linearGradient id="paint18_linear_68016_5206" x1="144.022" y1="1.51622" x2="116.617" y2="25.0999" gradientUnits="userSpaceOnUse">
<stop stop-color="#62B34F"/>
<stop offset="0.46" stop-color="#05D0CB"/>
<stop offset="1" stop-color="#0996D4"/>
</linearGradient>
<linearGradient id="paint19_linear_68016_5206" x1="144.918" y1="2.5555" x2="117.51" y2="26.1391" gradientUnits="userSpaceOnUse">
<stop stop-color="#62B34F"/>
<stop offset="0.46" stop-color="#05D0CB"/>
<stop offset="1" stop-color="#0996D4"/>
</linearGradient>
<linearGradient id="paint20_linear_68016_5206" x1="145.763" y1="3.53858" x2="118.358" y2="27.1222" gradientUnits="userSpaceOnUse">
<stop stop-color="#62B34F"/>
<stop offset="0.46" stop-color="#05D0CB"/>
<stop offset="1" stop-color="#0996D4"/>
</linearGradient>
<linearGradient id="paint21_linear_68016_5206" x1="153.616" y1="12.602" x2="126.271" y2="36.1858" gradientUnits="userSpaceOnUse">
<stop stop-color="#62B34F"/>
<stop offset="0.46" stop-color="#05D0CB"/>
<stop offset="1" stop-color="#0996D4"/>
</linearGradient>
<linearGradient id="paint22_linear_68016_5206" x1="154.532" y1="13.7282" x2="127.127" y2="37.3119" gradientUnits="userSpaceOnUse">
<stop stop-color="#62B34F"/>
<stop offset="0.46" stop-color="#05D0CB"/>
<stop offset="1" stop-color="#0996D4"/>
</linearGradient>
<linearGradient id="paint23_linear_68016_5206" x1="155.442" y1="14.7914" x2="128.037" y2="38.3751" gradientUnits="userSpaceOnUse">
<stop stop-color="#62B34F"/>
<stop offset="0.46" stop-color="#05D0CB"/>
<stop offset="1" stop-color="#0996D4"/>
</linearGradient>
</defs>
</svg>
