<svg xmlns="http://www.w3.org/2000/svg" xmlns:xlink="http://www.w3.org/1999/xlink" width="96" height="96" viewBox="0 0 96 96">
    <defs>
        <path id="a" d="M6.3 2.9H5.2c-.7-.1-3.1-.5-4.7-1.4L.2 2.6c2.4 1.2 6.6 1.401 6.6 1.401C6.4 3.3 6.1.9 6.1.9s0 1.301.2 2"/>
        <path id="c" d="M.7 7.901l-.4 1.1C12.4 7.901 10 1.3 10 1.3c-.5 0-1.2-.399-1.2-.399 2.2 6.699-8.2 7-8.1 7"/>
        <linearGradient id="d" x1="-294.666%" x2="-271.57%" y1="-14539.883%" y2="-14539.883%">
            <stop offset="0%" stop-color="#FFF"/>
            <stop offset="100%" stop-color="#C5C5C5"/>
        </linearGradient>
        <path id="f" d="M2.9 4.5c1.5.8 4.4 1.201 4.4 1.201L7.5 4.6c-1.499-.1-3.299-.699-3.299-.699C.9 3.001 1.7 1 1.7 1c.6.401 1.4.401 1.4.401C1.3 1.201.7.1.7.1c-.8 2.801.801 3.801 2.2 4.4"/>
        <linearGradient id="g" x1="-202.008%" x2="-225.789%" y1="-21058.731%" y2="-21036.77%">
            <stop offset="0%" stop-color="#FFF"/>
            <stop offset="100%" stop-color="#C5C5C5"/>
        </linearGradient>
    </defs>
    <g fill="none" fill-rule="evenodd">
        <path d="M0 96.2h96.2V0H0z"/>
        <path fill="#FFF" d="M72.7 47c-1.5-.7-2.9-1.8-4.4-2.6-.1-.1-.2-.1-.4-.2 1.2.5 2.5.9 3.9 1.2 1.5.2 3.2.1 4.2-.5-1.2-1.8-2.7-3.3-4.9-4.1 1.1.1 2.1.1 3.1-.2.8-.2 1.5-.8 1.5-1.9-.9.5-2.6.5-3.9.2 1.6-.4 3.2-.8 3.9-2.1-1.1-.7-2.2-1.3-3.8-1.5.8-.5 2.1-.8 2.6-1.6.4-.5.1-1.1-.1-1.5-.2.2-.5.4-.8.6-.2.2-.6.4-.9.5-.6.4-1.3.7-2.1.8.7-.5 1.4-1.1 1.9-1.6.6-.6 1.2-1.3 1.4-2.1-.9-.5-2.5-.5-3.5-.2.7-.7 1.8-2.2.8-3.4-.7 1.1-1.5 1.8-2.6 2.5.9-1.2 1.6-2.5 1.9-4.4-1.5.1-2.7.4-3.8 1.1.7-.9 1.4-1.9 1.4-3.4-4.7.5-8.4 2.4-10.9 5.1-1.2 1.3-2.6 2.9-3.2 4.8-.4 1.1-.5 2.4 0 3.3.5.8 1.2 1.6 2.5 1.4.6 2-1.3 2.8-3.2 2.7.1-.9-.1-1.8-.5-2.2.4-.1.7-.2.7-.6-.6-.1-.9-.2-1.2-.7-.4-.8.2-2 .1-3.1.2.1.5 0 .6-.1-.5-.4-.5-1.3-.4-2.1.1-1.8.7-4.5-.2-5.6.1-.1.2-.4.2-.7.6 0 .5-1.1.1-1.3-.1.5-1.2.4-1.4 0 .6-.1.7-1.4.1-1.6-.1.4-.4.7-.8.9.2-1.1-6.5-2-6-.2-.7.1-1.1.6-1.1 1.4-.9 0 .7 2.6.9 2.8-.8.1-1.5.7-2.4.7-.5 0-.8-.4-1.1-.5-.1.4 0 .7.2.9.9.9 2.9.1 4-.1 0 .1-.1.4 0 .4h.5c.7 0 1.1.5 1.4.8.4.5.6 1.1.4 1.8-.4 1.2-1.3 1.9-2.1 2.5-.1.5.1.8.4.9-.4.5-.7.9-1.2 1.4-.4.4-.9 1.1-1.5.9-.2 0-.4-.2-.5-.4-.4.5-.2 1.4.2 1.6-.6.6-.7 1.4-.8 2.5-1.4-.2-3.3-.5-3.3-2 0-.4 0-.6.1-.8 1.1.1 1.8-.6 2.1-1.2.4-.6.6-1.4.6-2.5-.1-1.8-1.2-3.3-2-4.5-.9-1.2-2-2.2-3.2-3.3-2.5-1.9-5.4-3.4-9.3-3.6.4 1.6 1.4 2.8 2.4 3.8-1.3-.6-2.9-1.4-4.8-1.1.2 1.2.8 2.1 1.4 2.8.6.8 1.4 1.5 2.1 2.1-.7-.5-1.5-.9-2.2-1.4-.8-.6-1.8-1.1-2.2-1.9-.2.2-.2.7-.2 1.1.1 1.1.8 1.8 1.4 2.2-.7-.1-1.5-.1-2.2 0-.7.1-1.4.1-1.9.5.5.9 1.3 1.5 2 2.2.7.7 1.6 1.2 2.6 1.5-1.1-.1-2-.5-2.8-.8-.7-.4-1.4-.7-2-1.3-.1 0-.1-.1-.2-.1-.1.8.2 1.4.6 2 .4.5.8.9 1.4 1.2-1.3.2-2.5.6-3.3 1.3.6.7 1.4 1.3 2.2 1.8.8.5 1.9.9 2.9 1.1-1.6.1-3.5 0-4.8-.5 0 2.2 2.6 2.1 4.7 2.1-1.1.5-2 1.1-2.9 1.8-.8.7-1.8 1.4-2.1 2.6 2 .8 4.9 0 6.7-.4-1.4.8-2.8 1.8-4.4 2.6-.6.4-1.4.8-2.2.6.4.7.9 1.4 2.1 1.3.9-.1 1.6-.5 2.5-.8.7-.4 1.5-.7 2.1-1.1-1.8 2.5-3.6 4.8-3.5 9.2 1.1-.1 1.8-.7 2.6-1.2 2.2-1.5 3.9-3.5 5.4-5.7-.8 1.6-1.5 3.5-2.5 5.2-.8 1.6-1.8 3.3-3.5 4.1 1.3.6 2.5-.1 3.3-.7 1.6-1.3 2.6-3.4 3.5-5.3-.4 1.6-.6 3.6-.6 5.6 0 1.1.1 2.1.5 2.8 1.4-1.1 2.5-2.6 3.4-4.2.9-1.6 1.6-3.4 2.2-5.4-.4 2.2-.8 4.4-1.4 6.2.2.1.5 0 .7-.1.7-.4 1.1-1.2 1.4-1.8.4-.8.6-1.6.8-2.4.1.1.1.2.2.2.8-.6 1.4-1.5 1.9-2.6s.7-2.2.9-3.6c1.1.4 2.5.1 3.2-.5.2.4.4.9.5 1.5-.6-.6-1.8-.8-2.6-.4-.7.4-1.2 1.2-1.4 2.1-.1.6-.1 1.1-.2 1.4-.4 1.4-1.2 2.4-2.2 3.1.1.1.4.1.6.1-.2.4-.5.8-.8 1.2 0 0-.1 0-.1.1.1.1.2.1.4.1-.4.6-.8 1.1-1.4 1.3.1.1.4.2.6.2-.4.6-.9.9-1.5 1.2.7.5 1.5.7 2.6.7-.4.8-1.1 1.3-1.8 1.7.1.1.4.2.6.2-.5.6-1.1 1.1-1.9 1.3.1.1.4.1.5.1-.4.6-.9 1.1-1.8 1.3.1.2.5.4.8.4-.4.6-1.1.7-1.8.8.1.2.4.4.6.5-.9 1.1-2.6-.1-4.1.1-.5-1.1-2.6-.8-2.7.4-.2-.1-.6.1-.5.4-.6.6-.5 2.1.4 2.2 0-.7.5-.9.8-1.3.6.2 1.3 0 1.5-.4.5.1.9.1 1.4.4-.4 0-.6.1-.8.4-.2.1-.5.5-.7.5-.2 0-.5-.1-.7-.1-.2 0-.5.1-.7.2-.1.1-.5.5-.5.7-.1.2 0 .7 0 .9-.1.1-.1.5.1.6.1.6.5.9.8 1.2.4.2.8.4 1.3.4-.1-.2-.2-.4-.4-.6-.1-.2 0-.6-.1-.9.5-.2.8-.6.8-1.1.5-.1 1.1-.2 1.5-.5.1 0 .2-.2.4-.1 0 .1-.1.2-.1.2-.4.2-.6.6-.7 1.1-.8-.1-1.3.5-1.3 1.3 0 .4.2.6.5.8-.1.4.1.6.4.6.1.8 1.8 1.3 2.4.5-.4-.1-1.4-1.1-.6-1.3.4-.2.4-.9.1-1.4.7-.6 1.3-1.3 1.9-2 .5.1 1.2 0 1.5 0 0 .2-.1.2-.1.5-.1.5.2.7.6.8 0 .2 0 .6-.1.8l-.4.4c.7.4 1.9.1 1.9-.8.2 0 .4-.2.2-.6.5-.1.6-.7.6-1.2-.1-.7-.7-1.2-1.4-1.2-.2 0-.5.1-.7.1-.4-.1-.4-.6-.1-.8.1-.2.4-.5.6-.7.7-.8 1.2-1.4 1.9-2.4.7-.8 1.5-1.8 2.2-2.6l.4-.4.2.2c.5.6 1.2.9 2.1.9-.2-.5-.5-.9-.5-1.6.2.1.5.4.8.4-.6-2.7.7-4.8 1.9-6.1 0 2.8-.8 5.2-1.8 6.9.8.1 1.4-.5 1.8-.8.1.9-.2 1.8-.7 2.5-.4.7-.9 1.3-1.8 1.3-.5 0-.7-.2-.9-.4-.4.8-.1 1.8.5 2.2.7.5 1.8.1 2.4-.2-.2.7-.6 1.4-1.3 1.9-.6.4-1.8.8-2.5.2-.5-.4-.4-1.3-.1-1.8-1.4-.1-2.4.7-2.5 2-.1 1.1.5 1.8 1.1 2.2-.6.5-1.3 1.1-1.3 2.1 0 1.1.6 1.6 1.4 2 .7.4 1.8.6 2.8.4 1.8-.5 2.9-1.8 3.8-3.1-.4 1.1-.4 2.6-.1 3.8.2 1.2.8 2.1 1.4 2.8.5-.8 1.1-1.8 1.3-2.8.2-1.1.4-2.6 0-3.6.5.8 1.1 1.4 1.8 2 .7.6 1.5 1.1 2.7 1.1 1.2 0 2-.6 2.5-1.3.2-.4.5-.8.5-1.4 0-1.1-.8-1.8-1.5-2.1.8-.4 1.4-1.6 1.2-2.8-.2-.9-.8-1.4-1.8-1.5.1.1.1.4.1.6.1.9-.7 1.4-1.5 1.5-1.6.1-2.6-1.2-2.9-2.2.7.5 1.8.4 2.4-.2.5-.5.6-1.4.1-2-.4.4-1.1.7-1.6.5-.9-.5-1.3-1.8-1.4-2.9.4.4 1.1.5 1.8.4-.4-.5-.6-.8-.9-1.4-.8-1.5-1.1-3.6-1.2-5.9.5.8.9 1.6 1.4 2.6.4.9.7 2 .7 3.2.5-.1.7-.6.9-1.1 0 .5 0 .9-.1 1.4-.1.4-.4.7-.6.9 1.2.4 2-.6 2.5-1.3 1.5 2 3.1 4.1 4.8 5.9.2.2.7.6.7.8 0 .2-.2.4-.6.4-.1 0-.4-.1-.5-.1-1.4-.2-2 1.3-1.1 2v.5c.1 1.1 1.8 1.4 2.4.7-.5-.1-.6-.4-.8-.8.1-.1.1-.4.1-.6.2 0 .4-.2.5-.2.6.1 1.1-.1 1.4-.4.6.6 1.1 1.2 1.6 1.7-.1.1 0 .2.1.2-.1.7.2 1.2.6 1.4-.1.2.1.5.4.6-.2.2-.6.5-.8.7.7.4 1.8.1 2-.5v-.2c0-.1.1-.1.1-.1v-.2c0-.1.1-.2 0-.4.6-.8.1-2-.9-2-.5-.5-1.1-.9-1.5-1.4.5.1 1.1.4 1.6.6.5.1 1.3.4 1.5.7.1.1.1.2.1.4.1.2.2.4.5.5 0 .6 0 .9-.1 1.3.9.1 1.4-.6 1.5-1.4.1-.1.1-.1.1-.2s-.1-.2-.1-.4l.1-.1c.2-.4.2-.8 0-1.1-.4-.6-1.4-.9-2.2-.5-.5-.4-.9-.6-1.5-.8.4-.2.9-.4 1.7-.4.4.2 1.1.4 1.4.1 0 .2.5.4.7.2.4.1.5.6.6.8.7-.5.6-2.1-.2-2.2-.1-.2-.2-.4-.5-.4-.2-.8-1.9-.7-2.1 0-.8.1-1.8.2-2.5.5-.2.1-.5.2-.7.2-.5.1-.8-.2-1.1-.6.2-.1.5-.2.5-.5-.7 0-1.2-.2-1.5-.6 0-.1.1-.2.1-.4-.1-.2-.6-.8-.8-1.4.1-.1.2-.1.2-.4-.6-.2-1.2-.5-1.5-1.1.1-.1.4-.2.4-.4-.5-.2-.9-.6-1.3-.9-.4-.4-.8-.7-.9-1.3.9.2 2.2 0 2.8-.4.1 0 .2-.1.2-.1-.9-.2-1.6-.7-2-1.4.2 0 .4-.1.5-.1-.5-.4-1.1-.7-1.3-1.4.2 0 .5-.1.6-.2-.5-.2-.8-.6-1.1-1.1.2 0 .6 0 .7-.1-1.2-.6-1.6-2-2.1-3.4-.4-1.2-.9-3.1-2.6-2.9-.7 0-1.2.4-1.6.6.2-.5.5-.8.7-1.3.7.4 2.1.4 2.7 0 .2 2.4.9 4.4 2.4 5.5.2-.1.6-.4.7-.5.1.8.4 1.6.6 2.5.4.9.8 2 2.1 1.9-.7-1.5-.9-3.5-.8-5.7.2 2 .7 3.9 1.3 5.5.6 1.7 1.3 3.3 2.6 4.2.5-.9.7-2.1.8-3.4.1-1.3.1-2.7 0-4 .8 1.3 1.8 2.9 2.8 4 .4.4.8.8 1.4.8.7 0 .9-.6 1.5-.8-2.5-1.3-3.1-4.2-4.4-6.7.8 1.2 1.6 2.2 2.7 3.2 1.1.9 2.1 1.9 3.6 2.2.2-3.9-1.2-6.5-2.6-8.8 1.1.5 2.1 1.1 3.5 1.3 1.4.4 2.9 0 3.2-1.3-1.3.7-2.6.2-3.3-.1M45.8 70.1c-.2.6-.8 1.3-1.3 1.8-.6.5-1.3.9-2 1.1-1.1.1-1.6-.6-1.4-1.8 1.7.6 3.7-.2 4.7-1.1 0 0 0-.1 0 0 0-.1 0-.1 0 0m4.7-.4c.9.9 2.9 1.8 4.7 1.3.1 1.1-.5 1.6-1.5 1.6-1.7-.1-2.7-1.7-3.2-2.9-.1 0 0 0 0 0"/>
        <path fill="#F2F2F2" d="M48.1 23.6c.6.2 1.1.4 1.4.4 0 0-.5.1-2.7-1.1 0 0-2.6-1.3-2.4.6h.1s0-1.2 1.3-.7c.9.2 1.6.5 2.3.8"/>
        <g transform="translate(36 40.2)">
            <mask id="b" fill="#fff">
                <use xlink:href="#a"/>
            </mask>
            <path d="M6.3 2.9H5.2c-.7-.1-3.1-.5-4.7-1.4L.2 2.6c2.4 1.2 6.6 1.401 6.6 1.401C6.4 3.3 6.1.9 6.1.9s0 1.301.2 2" mask="url(#b)"/>
        </g>
        <path fill="#C6C6C6" d="M44.1 23.4h.5s-.2-1.2.9-1.1c1.2.1 2.2.9 2.7 1.1 0 0-1.8-1.2-2.7-1.2-1.1 0-1.4.6-1.4 1.2"/>
        <path fill="#CCCDD2" d="M48.3 22.8s1.8.5 2.5.1c0 0 .4-.1.5-.5.2-.4.4-.4.4-.4s.5.9-.8 1.2c-1.4.3-2.6-.4-2.6-.4M51 23.5s.7.2.4.6v.1s.8.5 1.4 0c0 0 .4-.2 0-.7 0 0-.4.2-.8.2-.5.1-.9-.2-1-.2M51.8 24.5s.8 1.2.5 1.5c0 0-.1.1-.4 0 0 0 1.2 2.2.4 4.4-.8 2.1-2.8 4.2-1.3 6 0 0 1.2 1.1.8 2.4 0 0 .8-.7-.1-2.6 0 0-.4-.9 0-2.4 0 0 .5-1.9.5-2L53 33s-.2-1.1-.1-1.9c.1-.8.5-3.9.1-4.9-.5-1.4-1.2-1.7-1.2-1.7"/>
        <path fill="#CCCDD2" d="M52.2 32.2s.4.6.5.6c0 0-.4 2.8-.2 3.1.1.2.2.8 1.1 1.1 0 0-1.1.5-1.5-.6-.6-1.1-.3-3.3.1-4.2"/>
        <path fill="#C6C6C6" d="M51.9 37.2s0 .7-.1.9c0 0 .5.6.7 1.6.1 1.1.4 1.5.4 1.5s0-2.4-.8-3.5v-.1h.6c-.1-.1-.6-.2-.8-.4"/>
        <path fill="#CCCDD2" d="M44.7 23.5l.4.1s0-.4.2-.5c.2-.1.4 0 .2.1-.1.1-.1.2-.1.2l.5.2s0-.5.1-.5c0 0 0-.1.5 0s2.2.8 2.2.8-.1.7-1.2.6c0 0 1.1.7 2.1-.5 0 0 1.2 0 1.3-.2 0 0-1.2 0-1.8-.1-.6-.1-2.1-.6-3.1-1.1-.9-.1-1.3.4-1.3.9"/>
        <path fill="#C6C6C6" d="M46.1 23.2s-.2.8.5 1.1c.8.4.9.2.9.2l-.5-.2s-.1.1-.4-.1c-.2-.1-.4-.4-.2-.9.2.1 0 0-.3-.1"/>
        <path fill="#D0D0D0" d="M41.7 27.2s.7.2 1.8-.1c.9-.2 1.5-.6 2.2-.7.6-.1 1.3-.1 2.2.4 0 0 .1.1.1.2s0 .1-.2.1c-.2-.1-.4-.2-2-.2 0 0-.6.1-.9.2-.5.1-2.2.7-3.2.1"/>
        <path fill="#D9D9D9" d="M46.8 32.5s1.5-.6 2-2c0 0 .1-.1.2 0s.2.1.4.1c-.1 0-.7 1.6-2.6 1.9M45.9 32.9s1.2.5 2.5-.6c0 0-2 2.4-2.5.6M47 34s.9-.4 1.2-.7c0 0-1.2 2.7-3.4 3.5 0 0-1.6.6-2-.7 0 0 .6.6 1.9.1C45.8 35.8 47 34 47 34"/>
        <path fill="#C6C6C6" d="M43.2 37.3s1.1.2 1.8-.1c0 0 .7-.4 1.1-.7.4-.4 1.2-1.3 1.3-1.4l-.5 1.2s-1.2.9-2 1.1c0 0-.8.4-1.2 1.2 0 0-.6.9-.7 1.1 0 0 .4-.7.4-.9 0 0 .4-.8.7-1.1 0-.2-.8-.3-.9-.4M46.7 37.1v.7s-.5.1-.5 1.2c0 1.1.2 1.4-.1 2 0 0 0-.7-.1-1.2s-.2-1.1-.1-1.6c.2-.7.8-1.1.8-1.1"/>
        <path fill="#C6C6C6" d="M44.8 37.9s-.4.9-.2 1.5c0 0 .1.5.2.7.2.1 1.1.8 1.2 1.3 0 0-.6-.8-1.3-1.3 0 0-.2-.2-.2-.4 0 0-.2.5-.8.7-.6.2-1.1.6-1.1.6s-.1-.2-.1-.4c0 0-.2-.1-.4.1H42s.2-.2.7-.4c.5-.1 1.3-.1 1.5-.6 0 0 .2-.4.2-.7.1.3.1-.6.4-1.1"/>
        <path fill="#BFBFBF" d="M51 28.8s.1 0 .1-.1.1-.2.1-.2 0 1.5-.2 2.2c-.2.7-.6 1.3-1.1 2-.5.7-1.3 2.4-1.4 2.6-.1.2-.7 2.1-.8 2.4 0 0 .5-2 .7-2.6.2-.6 1.3-2.5 1.4-2.7.1-.2.9-1.8.9-2 .1-.4.4-1.5.3-1.6"/>
        <path fill="#CCCDD2" d="M49.1 35.4s0 1.4.2 1.8c0 0-.7.9-.9 1.1-.2.2-.8.7-1.5.4 0 0 .5-.2.7-.6.2-.5 1-2.6 1.5-2.7"/>
        <path fill="#D9D9D9" d="M49.8 34s-.5 1.4-.1 2c.4.6.9.9.9 1.1l.5.6c0 .1-.9-.4-1.3-.7-.4-.4-1.1-1.4 0-3M50.4 25.8s1.5.8 1.5 2.6c0 1.6-.7 2.9-.9 3.5-.4.6-1.3 1.9-1.3 1.9s1.8-2.8 1.9-4.1c-.1-1.4-.6-3.1-1.2-3.9"/>
        <path fill="#C6C6C6" d="M49.7 37.5l.8.5c.1 0 .5.2.5.4 0 .1.1.2.1.2l-.1-.2-.1-.2-1.2-.7c.1-.1-.2-.4-.2-.4s-.5.8-.4 1.4c.2.5.6 1.1.6 1.8 0 .6-.1.9-.1.9s.4-.9.2-1.5c-.1-.5-.6-1.5-.1-2.2M51.2 38.8s.2.7.4.8c0 0-.2.8-1.1 1.4-.8.6-.9.8-.9.8s-.1-.2.7-.9c.8-.5.9-2 .9-2.1"/>
        <path fill="#D9D9D9" d="M45.1 23.8s.8.4 1.4 1.3c0 0-.4-.1-.6-.1.1.1-.2-.8-.8-1.2"/>
        <path fill="#C6C6C6" d="M47.5 38.8c.1 0 .1.7.5.9.4.2 1.3 1.2 1.3 1.8 0 0-.1-.6-.6-.9-.5-.4-.8-.7-.8-.7s-.4.7-.8 1.1c-.6.4-.9.7-.9.8 0 0 .1-.4.7-.8.6-.5.8-1.8.6-2.2"/>
        <path fill="#E6E6E6" d="M49.2 25.6s1.4.9 1.4 2.1c.1 1.2 0 1.8-.4 2.7-.4.9-1.9 3.8-1.9 3.8s-1.2 2.2-1.3 3.4c-.1 1.2-.1-1.5 1.4-4.1 1.5-2.6 1.9-3.9 1.8-4.8-.1-.9-.3-1.9-1-3.1"/>
        <path fill="#C6C6C6" d="M43.5 45.4s-.6-.9-.6-1.1c0-.1.1-.2.2-.4.1-.1 0 .2.2.4 0 0 .1-.4.2-.5.1-.2 1.2-.9 1.1-1.6l-.4-.4s.1.8-.5 1.3-.9.8-.9 1.1c.2.3.4.7.7 1.2M44.8 42.4s1.6.8 2.9-.5l.4.2c0 .1-1.7 1.3-3.3.3M48.1 42.4s1.6.7 2.7-.4l.1.4c.2 0-1.5.8-2.8 0"/>
        <path fill="#CCCDD2" d="M51.5 40s1.1 1.3.7 2c-.2.7-.7.4-.9.1-.2-.4-.4-.8-.1-1.6 0 0-.6.9.2 2s.7 1.4.7 1.4.7-1.4.6-2.2c-.1-.9-1.2-1.7-1.2-1.7"/>
        <path fill="#C6C6C6" d="M44.3 43.9s1.1.2 1.8-.6l.2.2c.1 0-1.1.7-2 .4M46.5 43.6s1.5.8 2.9-.1l.4.2c-.1-.1-1.8.9-3.3-.1M49.8 43.6s1.2.5 2.1-.4c0 0 .1.2.1.4 0 0-1 .6-2.2 0M44.5 44.7s-.1.4-.7.7c0 0-.2.2-.1.4.1.1.2.4.2.4s0-.2.2-.5c.3-.4.6-.6.4-1"/>
        <path fill="#C6C6C6" d="M47.8 44.7s-1.1 1.2-3.3 0v.1s.6.5 2.1.6c0 0 1.1 0 1.4-.5.1 0-.1-.1-.2-.2M51.1 44.4l.1.2s-1.4.9-3.1.4c0-.1 1.6.5 3-.6"/>
        <path fill="#CCCDD2" d="M52 43.8s.1.5 0 1.1c-.1.6-.1.7-.1.7s-.7-.4-.8-.7c0 0 .1-.2.4-.4.2-.1.5-.7.5-.7 0-.2 0 0 0 0"/>
        <path fill="#CCCDD2" d="M51.2 45.2s.5.8 1.4.8c.9 0 1.5-.8 1.5-.8l.1.7s-1.2 1.1-2.6.4c0 0-.1.7-.1.8 0 0-.9-.2-1.2-.9 0 0 .2 0 .4-.2 0-.2.1-.8.5-.8M51 47.1s-.5-.4-.6-.5c-.1-.1-.4.4-.4.6.1.2.1.6.4.7l.6-.8z"/>
        <path fill="#C6C6C6" d="M49.9 45.9l.2.4s-2.4 1.3-4.5 0v-.1s1.1.7 2.1.6c1.1-.2 2.2-.9 2.2-.9M45.3 46l.2.2s-.4.8-.8 1.1l-.2-.4c0-.1.7-.4.8-.9M45.1 48.1l.6-.6s.2.2.4.2c.1 0-.2.1-.4.4-.1.1-.4.5-.4.5l-.2-.5z"/>
        <path fill="#C6C6C6" d="M45.9 47.8s.4.2 1.1.1c.7-.1.8-.5.8-.5l.2.2c.1.1-1 .9-2.1.2M50 47.7l.2.2s-.7.2-1.6-.1c0 0 .8.2 1.4-.1"/>
        <path fill="#CCCDD2" d="M49.4 48.5l.2.2s-.5 1.2-.6 2.1c-.1.9-.6 3.9-.6 3.9s.1-2.5 0-3.3c-.1-.8-.1-1.5 0-1.8 0-.2-.1-.5-.4-.5-.2-.1-.5 0-.6-.2.1.2 1.3.2 2-.4M50 48.9s-.4 1.4-.5 2.6c-.1 1.2-.2 2.2-.2 2.2s-.1 2.4-.7 3.6c0 0-.4.8-.8 1.3v-.9s.8-.4 1.2-2.6c0 0 .4-3.3.4-3.4 0 0 .3-2.2.6-2.8"/>
        <path fill="#D9D9D9" d="M46.3 48.6s.4.4.6.4c0 0-.4 0-.4.2 0 0 .4 1.2.4 2.6 0 1.4.1 2.9.1 3.1 0 .2.2 1.5.4 1.6.1.1-.4.1-.6-1.8-.2-1.9-.1-2.8-.2-3.4-.1-.7-.4-1.9-.7-2.2l.4-.5z"/>
        <path fill="#CCCDD2" d="M45.3 49.4s.7 3.9.7 5.1c0 0-1.4 1.5-1.8 2.5-.4.8-.6 2.6-.5 3.5 0 0-1.2-.2-1.2-2.1 0 0 0-.8.1-1.4 0 0 .8.2 1.3-.5.6-.7.9-1.2 1.3-2 .4-.7.4-1.9.4-2.1-.1-.3-.3-3-.3-3M46.3 54.5s.2 2.5 1.1 3.4c0 0-.4 1.2-.6 1.5 0 0 .1-.5-.1-.5s-1.4 2.2-2.1 2.7c0 0 1.4-1.8 1.6-2.5.2-.7.4-1.4.4-2.4-.2-.8-.3-2.2-.3-2.2"/>
        <path fill="#C6C6C6" d="M48.3 58.5s-.4 4.1-.4 5.2V59l.4-.5z"/>
        <path fill="#C6C6C6" d="M48.8 59.8s.6 1.4.9 1.6h-.1s-.2-.2-.2 0-.5 3.1-1.4 4.7v-.9s-.6-.5-.8-1.9c0 0 .5 1.5.8 1.8 0 0 .7-1.5.9-2.6.1-1.1.1-2.3-.1-2.7"/>
        <path fill="#C6C6C6" d="M48.7 64.5l.4.5s.6 2.5.5 4.2c-.1 1.6-.2 2.9-1.5 4.4v-.7s-1.2-2.1-1.1-4.7c0 0 .2 3.2 1.1 4.5 0 0 .8-.9.9-2.4.2-1.4.1-3.9-.4-5.5l.1-.3z"/>
        <path fill="#C6C6C6" d="M48.7 64.5l.4.5s.6 2.5.5 4.2c-.1 1.6-.2 2.9-1.5 4.4v-.7s-1.2-2.1-1.1-4.7c0 0 .2 3.2 1.1 4.5 0 0 .8-.9.9-2.4.2-1.4.1-3.9-.4-5.5l.1-.3z"/>
        <path fill="#D9D9D9" d="M47.7 65.7l.4.6.2-.5-.2 5.5-.1-2.8c-.1 0-.3-2.5-.3-2.8M47.7 73.2s.2.4.4.5c.1 0 .5-.6.5-.6l-.5 3.7-.4-3.6zM49.4 54.6s-.1 1.9-.4 2.5c0 0 .2 4.4 2.1 4.5 0 0-.6-.7-1.3-2.7-.5-2-.4-4.3-.4-4.3M49.1 63.8s.1.7.4 1.1c.2.2.9.8 1.3.9 0 0-.6 0-1.1-.7-.6-.7-.7-.9-.7-.9l.1-.4zM49.7 61.9s.2 1.3.6 1.9c.4.5 1.1 1.4 1.8 1.4 0 0-1.3.6-2.4-1.3l-.5-.6c.1-.1.2-1.5.5-1.4M46.6 59.9s0 2.1.1 2.6.4 1.5.4 1.8c0 0-.6 1.1-1.5 1.1 0 0 1.2-.7 1.2-1.5v-.4l-.4.6s-.6 1.3-1.9 1.3c0 0 1.2-.1 1.5-1.2 0 0 .5-1.2.5-1.7l-.1-1.2s-.2 2.4-1.4 2.8c0 0 .8-.8.9-1.9.4-.9.7-2.3.7-2.3"/>
        <path fill="#C6C6C6" d="M47.2 64.4l.1.4s-.9 1.2-1.9 1.5c-.9.4-2.4.5-2.7-1.3 0 0 .5 1.6 2.2 1.2.1-.1 1.6-.7 2.3-1.8"/>
        <path fill="#D9D9D9" d="M47.1 65.8s-.5 1.4-.5 2.2c0 0-.6.9-1.1 1.2 0 0 .8-.8.6-1.1 0 0-.1 0-.5.4-.4.5-1.9 1.6-2.9 1.4 0 0 1.5 0 2.7-1.5 1.2-1.4 1.7-2.6 1.7-2.6M41.2 66.8s-1.1.7-.5 2.4c0 0-.7-.4-.4-1.5 0 0 .1-.4-.4 0-.4.4-.8 1.9.8 3.1 0 0-1.2-.4-1.3-1.5 0-1.3.7-2.3 1.8-2.5"/>
        <path fill="#C6C6C6" d="M46.5 68.1v.7c0 .1-1.5 1.6-2.8 2-1.3.4-2.1.1-2.1.1s2 .2 3.2-.8c1.2-1.1 1.7-2 1.7-2"/>
        <path fill="#D9D9D9" d="M46.6 69.3s.1 1.4.2 1.6c0 0-1.1 2-2.2 2.8 0 0 1.8-1.9 2-2.8 0 0-1.6 2.9-4 3.1 0 0 2.4-.5 3.4-2.6-.1 0 .5-1.1.6-2.1M40.4 71.1s-1.1 2.4 1.5 2.9c0 0-.7.1-1.2-.2-.6-.4-.9.2-.2.7 0 0-1.2-.5-1.2-1.8 0-1.2 1.1-1.6 1.1-1.6"/>
        <path fill="#C6C6C6" d="M46.8 71.1l.2.6s-1.2 2.2-2.7 3.2c-1.5.9-3.3.5-3.3.5s1.5.2 1.1-.1c0 0-.4-.1-.5-.1-.1 0 .8 0 1.1-.1.2-.1 1.4-.2 2.1-1.1.9-.9 1.9-2.5 2-2.9"/>
        <path fill="#D9D9D9" d="M49.2 65.1s.4.7.9 1.1c0 0-.1 1.6 1.4 2.8 1.5 1.2 2.8.6 2.8.6s-1.5.8-3.2-.6c-1.4-1.5-1.9-3.3-1.9-3.9M55 66.6s2.6 1.6-.6 3.5c.1 0 2.6-1.1.6-3.5"/>
        <path fill="#C6C6C6" d="M55.8 67.2s1.3 2-.8 3.3c0 0-.6.5-2 .2 0 0 1.3.6 2.5-.4 1-.9 1.1-2.2.3-3.1"/>
        <path fill="#C6C6C6" d="M49.5 68.1s.7 1.5 2.2 2c0 0 1.1.4 1.6.4 0 0-1.5.1-2.7-.8 0 0-.9-.8-1.2-1.2v-.4h.1z"/>
        <path fill="#D9D9D9" d="M49.5 69.8s.5 2.1 2.8 3.9c0 0-2-1.2-2.9-3.5l.1-.4z"/>
        <path fill="#C6C6C6" d="M55.3 71.2s.8 1.4-.1 2.2c-.8.9-1.9.6-1.9.6s1.5.4 2.2-.6c.8-.9.2-2-.2-2.2"/>
        <path fill="#C6C6C6" d="M56.3 71.9s.8 2.1-1.4 2.9c0 0-1.1.5-2.4 0l-.6-.1s.9.8 2.7.5c1.7-.4 2.5-2.2 1.7-3.3M39.1 54.9s2.4-.2 2.8-1.6c0 0 1.6.1 3.2-2.2 0 0-1.2 2.2-3.4 2.8 0 0-1.5 1.5-2.9 1.5l.3-.5zM38.6 56.4s1.6.2 3.3-1.5c0 0 1.3.1 2.6-1.2 0 0-.9 1.4-2.8 1.5 0 0-1.6 1.6-3.4 1.5l.3-.3zM41.7 56.4s1.5.1 2.5-.9c0 0-1.1 1.5-2.6 1.4 0 0-1.3 2-4.2 1.6l.4-.4c-.1-.1 2.3.5 3.9-1.7"/>
        <path fill="#D9D9D9" d="M41.5 57.5s.1.7 1.1-.6c0 0-1.3 2.4.5 3.5 0 0-1.3.2-.4 1.2 0 .1-2.3-.8-1.2-4.1"/>
        <path fill="#C6C6C6" d="M41.2 58.1S40 59.6 38 59.4c0 0 .9.2 0 .4 0-.1 2.4.3 3.2-1.7"/>
        <path fill="#D9D9D9" d="M39.4 60.1l.1 1.1-.5.2c.1 0 .4-.7.4-1.3"/>
        <path fill="#CCCDD2" d="M41 58.8s-.1 1.4.4 2l-1.3.6-.4-.2s1.1-1.4 1.2-2.2l.1-.2z"/>
        <path fill="#D9D9D9" d="M40.1 61.4l-.4-.1s-2 2.6-2.6 3.2c-.6.6-2.2 2.4-1.4 3.1 0 0-.1-.6.1-1.1.2-.5 1.1-1.5 1.6-2.1.7-.7 2.6-2.7 2.7-3"/>
        <path fill="#C6C6C6" d="M35.1 67s-.1.6 0 .6.4.1.4.2-.2 0-.5.4c-.2.4-.4.6-.6.6 0 0-.5.8-.9 1.2-.5.4-.9.9-.9 1.2 0 .4.5 1.2-.7 1.6 0 0-.8.4-1.3-.6 0 0 1.3.2 1.1-1.4 0 0 .5 0 .7.1 0 0 .5-.9.8-1.3.3-.4 1.8-2.3 1.9-2.6"/>
        <path fill="#D9D9D9" d="M37.3 70.4s.2 0 .5-.1c.1-.1.2-.1.2.1s-.2.4-.7 0"/>
        <path fill="#C6C6C6" d="M37.1 70.3s.6-.5.1-1.2c0 0-.1-.2-.5-.4-.4-.1-.5-.4-.1-.5.5-.2 1.6-.5 1.9.9.1 1.3-1.4 1.2-1.4 1.2"/>
        <path fill="#D9D9D9" d="M34.4 67s-1.3 2.4-4.4 2.9c0 0-.4 1.5-1.9.8 0 0-1.1-.7.6-.9 0 0 .7 0 .8-.5 0 0 1.1.1 2-.2.9-.4 1.4-.9 1.8-1.2.2-.2 1.1-.9 1.1-.9M27.9 71s.2.2.8.2c0 0-.6.1-.9 0 0-.1.1-.2.1-.2M29.4 66s-.4.7-.8.8c-.5.1-1.1-.1-.9.5.1.5.6.7 1.1.7 0 0 .4-.1.6-.4.4-.4.8-.6 1.1-.5 0 0-.1.1-.5.2-.2.1 0 .4.1.4s.8.4 1.4.1c.6-.2 1.4-.8 1.5-.9 0 0-1.1 0-1.5-.1-.6-.1-1.2-.4-1.4-.4-.2 0-.2-.1-.2-.1-.1-.1-.4-.4-.5-.3M27.4 67.1s.1.6.6.9c0 0-.6-.2-.8-.4 0 0-.1-.1.1 0 0-.1 0-.6.1-.5"/>
        <path fill="#C6C6C6" d="M37.7 61.8s1.2 0 1.8-.4c0 0-1.3.8-2.2.9-.2-.1.2-.4.4-.5M36.2 63.3s1.2 0 1.8-.2c0 0-.9.8-2.1.7.1-.1.2-.4.3-.5M35.3 64.8s1.1 0 1.6-.4c0 0-.6.6-1.9.7.1.1.3-.1.3-.3M33.5 65.7s.9.2 2.2.1c0 0-.9.5-1.6.4 0-.1-.4-.1-.6-.5M51.9 52.1s.9.9 2.1.9c0 0 .9 1.2 1.9 1.2l.2.4s-.8-.1-2-1.2c.2 0-1.7-.3-2.2-1.3M51.8 53.4s.7.7 2 .8c0 0 .8.9 1.9 1.2l.8.1.2.4s-1.4-.2-2.6-1.3c-.1.1-1.7-.4-2.3-1.2M52.1 55.1s1.3.8 2 .6c0 0 .4.7 1.1.9 0 0 .9.5 2.1.4l.2.4s-1.1-.1-2-.5c-.8-.4-1.2-.7-1.4-.8-.1-.1-1.6-.7-2-1M59.4 58.5s-.8.8-3.2.5c0 0 1.1-.1.4-.2-.7-.2-1.3-.4-1.6-.6 0 0 .9.5 2.2.5 1.2 0 1.5-.2 1.5-.2s.4-.1.7 0M52.4 59.3s.7-1.3.7-2.2c0 0 .4 1.5-.7 3.1v-.9z"/>
        <path fill="#CCCDD2" d="M54 57.4s.8 1.2 2.1 1.4c0 0 .5.7.2 1.4l-1.5-1.8s-.1 1.4-.8 2.2c-.7.8-1.3 1.1-1.9.9 0 0 1.3-.1 1.8-1.2.4-.8.6-1.4.1-2.9"/>
        <path fill="#C6C6C6" d="M54.6 59.8s.8.7 1.6.6c0 0-.2.2-.7.1 0 0 1.1 1.3 3.1.6 0 0-.4 1.2-2.5 0 0 0 .4.8 1.3 1.2.9.5 1.9.2 2.1.1l.2.1s0 .4-.4.4c-.2 0-1.3.1-2.5-.7 0 0 1.8 2.6 3.8 2l.2.1-.1.4s-1.5.1-2.6-.9c0 0 .9 1.4 1.9 1.7.9.2 1.6 0 1.9-.1h.4s-.1.7-1.2.5c-1.2-.1-1.4-.5-1.4-.5s.7 1.1.7 1.4c0 0-.5-.8-1.1-1.5-.6-.6-1.6-1.9-1.6-1.9s-1.6-2-1.9-2.2c-.2-.5-1.2-1.4-1.2-1.4"/>
        <path fill="#D9D9D9" d="M63.9 66.1s.4-.1 1.3-.2c0 0 .7-.1.9-.4.2-.2.2-.7 1.2-.6 0 0 .5 0 .8.6 0 0 .4 0 .5.2 0 0-.1.2-.1.7 0 .4-.1.8-.6.7 0 0 .1-.4-.1-.2-.2.1-.2 0-.2-.1 0 0-.2.5-.8.2 0 0 .1-.1.1-.2 0 0 .6-.1.6-.6-.1-.5-.6-.6-.8-.5-.2.1-.5.6-.7.6-.6.1-1.7-.2-2.1-.2M66.3 69.8s.2.5 1.1.5c.8 0 .7-.4.7-.4s.6-.7 0-1.3c-.6-.6-1.4-.7-2-.2 0 0 0 .1-.2-.1-.2-.1-1.8-.9-2.2-.9 0 0 2.1.8 2.1 1.2.1.4-.7 0-.7 0s-1.4-.7-1.8-.7c0 0 1.5.6 2.2 1.2 0 0 .4.2.5.2.1-.1.8-.6.9 0 .3.2-.5.6-.6.5M63.1 68.7s0 .1.1.1c.1.1.7.6.7 1.2 0 0 .4-.4.4.1 0 0 1.1.8-.2 1.8 0 0 .4.1.4.4-.1.2-.4.2-.4.2s.1.2.5.1.7-.1.7-.1.1-.1.1-.2c0 0 .1-.2 0-.4 0 0 .5-.7.1-1.3-.2-.6-1.1-.7-1.1-.7l-1.3-1.2zM58.4 70s.2 0 .4-.1c.1-.1.4-.1.4-.1s.1-.5-.1-.4c-.4.1-.7.6-.7.6"/>
        <path fill="#D9D9D9" d="M59.6 68.7s1.6.6 1.8-1.2c0 0-.2 1.3-1.9.7 0 0-1.2-.5-1.3.4 0 0 0 .1.2.4.2.1-.1.6-.5.6 0-.2 1.4.2 1.7-.9"/>
        <path fill="#CCCDD2" d="M54.3 45.8s1.3.5.8-.1v-.1s.8.2 1.9-.9c0 0 .1.4.1.5 0 .1-.4.5-.8.8 0 0 .2 1.9.8 2.7.6.8 1.1 1.4 1.3 1.6 0 0-.6-.4-1.2-1.3s-.9-2.2-.9-2.9l-.4.1s.1 1.1.2 1.2l.2 4-.8-5.2c-.3-.1-.8-.2-1.2-.4"/>
        <path fill="#C6C6C6" d="M56.3 52.7V52s.9-.2 1.2-1.8l1.2.9.4-.2s.1 3.3.4 4.2c.2.9.5 1.5.5 1.5s-1.4-.4-1.6-3.4l-.2-2.5c-.4 0-.9 1.5-1.9 2"/>
        <path fill="#D9D9D9" d="M57.3 45.4l.7.1.4 3.8z"/>
        <path fill="#CCCDD2" d="M58.5 50.2l.1.6s1.5-1.3 1.4-4l2.5 11.3-1.8-11.3s-.9-.9-1.3-1.9l-.2.2c0 .1 1.1 3-.7 5.1"/>
        <path fill="#CCCDD2" d="M62 47.8l.8.4s2.1 8.5.1 12.6l-.1-.9s-2.4-1.2-3.4-9.5v-.1s.9 7.8 3.3 9.4c0 0 1.6-3.6-.2-11.4 0-.2-.3-.5-.5-.5"/>
        <path fill="#D9D9D9" d="M62.7 48.1l1.2.4s.6 1.6.7 1.9c.1.1.8 1.5 1.2 2.2 0 0 1.3 3.6 3.8 5.1 0 0-1.6.7-3.3-2.1-1.6-2.8-2.9-5.4-2.9-5.4l-.7-2.1z"/>
        <path fill="#B2B2B2" d="M62.5 27.4s-2.4.6-3.3 2.5c0 0 .8 0 .9.1l2.4-2.6-1.9 2.8s.7.5.9.9c0 0 1.3-.2 2 .6.8.8.8 1.5.5 2.4 0 0 1.1.9.8 2.2-.2 1.3-.9 1.5-.9 1.5s.6 1.3.2 2.2c-.4.9-1.1 1.2-1.1 1.2s-.4 1.5-1.1 2.1c-.7.5-1.4.6-1.9.6 0 0-1.1 2-2.9 1.3v-.1s1.1.5 1.1.1c0 0 0-.1-.5-.1 0 0-.4 0-.5-.2 0 0 1.8.7 2.7-1.3 0 0 1.4.1 2.1-.8.7-.9.5-1.8.5-1.8s1.1-.4 1.2-1.4c.1-1.1-.4-1.9-.4-1.9s1.2-.4 1.1-2.1c0 0-.1-.9-.8-1.3 0 0 .6-1.2-.2-2 0 0-.7-.8-2.1-.6 0 0-.4-1.2-1.8-1.3 0 0 .8-.1.4-.4 0 0-.2-.1-.8 0l.2-.2c-.2.1 1.1-1.9 3.2-2.4"/>
        <path fill="#CCCDD2" d="M62.5 27.4s-2.4.6-3.3 2.5c0 0 .8 0 .9.1l2.4-2.6-1.9 2.8s.7.5.9.9c0 0 1.3-.2 2 .6.8.8.8 1.5.5 2.4 0 0 1.1.9.8 2.2-.2 1.3-.9 1.5-.9 1.5s.6 1.3.2 2.2c-.4.9-1.1 1.2-1.1 1.2s-.4 1.5-1.1 2.1c-.7.5-1.4.6-1.9.6 0 0-1.1 2-2.9 1.3v-.1s1.1.5 1.1.1c0 0 0-.1-.5-.1 0 0-.4 0-.5-.2 0 0 1.8.7 2.7-1.3 0 0 1.4.1 2.1-.8.7-.9.5-1.8.5-1.8s1.1-.4 1.2-1.4c.1-1.1-.4-1.9-.4-1.9s1.2-.4 1.1-2.1c0 0-.1-.9-.8-1.3 0 0 .6-1.2-.2-2 0 0-.7-.8-2.1-.6 0 0-.4-1.2-1.8-1.3 0 0 .8-.1.4-.4 0 0-.2-.1-.8 0l.2-.2c-.2.1 1.1-1.9 3.2-2.4"/>
        <path fill="#CCCDD2" d="M63 27.1s.5 1.4-.2 2.8c0 0 1.4-.6 2-.7 0 0-2 .5-3.3 2h-.1s1.5-1.6 1.2-3.6l.4-.5z"/>
        <path fill="#D9D9D9" d="M60.4 44.1l2.8 3.2L61 44z"/>
        <path fill="#CCCDD2" d="M62.4 43.1s.9 1.5 3.2 1.9c0 0-.8 0-1.3-.2l5.8 9.3-6.6-9.5s.7 2.1.4 3.8l-.4-.7s.5-2-1.2-4.5h.1v-.1z"/>
        <path fill="#CCCDD2" d="M66.4 44.9h.6l2.4 3.6c.5.8 1.6 2.8 1.9 4.9.2 2.1.1 2.6.1 2.6l-.4-.8s-2.4 0-6.4-6.2c0 0 4 5.9 6.4 6-.3.2.7-2.9-4.6-10.1M63.7 31.9l-.4-.2 2.8-2.4s.5 2.7-2 4.6c0 0 .1-.4.1-.5 0 0 1.5-1.4 1.4-3.5l-1.9 2z"/>
        <path fill="#B2B2B2" d="M67.7 44.6l-.6-.5s0-2.1-3.1-4V40s3.9.6 4.9-1.3c0 0 4.7.2 5.8-1.9h.6s-.6 1.5-3.9 2.1l-2 .1s-.9 1.4-3.3 1.5l8.5 3.9L66 41c-.1.1 1.4 1.4 1.7 3.6"/>
        <path fill="#CCCDD2" d="M67.7 44.6l-.6-.5s0-2.1-3.1-4V40s3.9.6 4.9-1.3c0 0 4.7.2 5.8-1.9h.6s-.6 1.6-3.9 2.1l-2.1.1s-.9 1.4-3.3 1.5l8.5 3.9-8.6-3.4c0 .1 1.5 1.4 1.8 3.6M66.4 36.3s1.5.6 2.2 1.3l-.5-.5s5.2-.5 6.1-.5h-6.9l-.9-.3z"/>
        <path fill="#D9D9D9" d="M60.7 27.8s1.6-.8 1.9-.9c.2-.1 4.5-3.5 4.5-3.5l-4 3.6c0-.1-1.9.4-2.4.8"/>
        <path fill="#CCCDD2" d="M65.4 29.1h.7l3.2-3.6zM68.7 32.9l-.5.2s-.5 2-3.6 3.3v.3l1.5-.5c0 .1 2.5-1.5 2.6-3.3l3.6-2.2-4 2s-2 0-3.4.5c.2 0 3-.6 3.8-.3"/>
        <path fill="#D9D9D9" d="M68 22.3l-.6.5s-.1 1.9-2.2 3.8l-2.1 1.6v.2s2.6-1.8 3.4-2.7c.9-1.1 1.5-2.2 1.5-3.4M70.3 24.7l-.7.6s0 1.5-.9 2.8c-.9 1.3-2.5 2.5-2.5 2.5l-.1.4c0-.1 3.6-1.9 4.2-6.3"/>
        <path fill="#D9D9D9" d="M71 26.7s.9 1.1-.9 3.3c0 0-1.5.4-4.7 2.6l.1-.2 3.3-2.4c-.1.1 2.2-1.4 2.2-3.3M72.9 30.5l.7-.4s-.6 2.1-3.3 3.8c0 0-1.1.5-2.1.6l.1-.1c0 .1 3.4-1 4.6-3.9M74.3 32.5s1.1 1.4-2.7 2.7c0 0-2.4-.1-3.8 0l1.9-.1s3.9-1.1 4.6-2.6"/>
        <path fill="#E6E6E6" d="M67.2 22.8s-6.8 1.5-8.4 6.4c0 0-.8.9-.8 1.3 0 0-.9.7-.7 2.1 0 0-1.3.5-1.2 1.9.1 1.4 1.4 1.4 1.6 1.4l.4.1s-3.2.8-2.9-2.4c.1-1.1 2.1-8.4 12-10.8M56.5 37.1s.8 0 1.6-1.1h.1s-.2 1.2 0 1.5c0 0 1.1 0 1.6-.5 0 0 1.6 3.6-7.1 4.6 0 0 .5-1.6.5-2h.2s1.9.8 3.5-1.1c.2.2 1.2-.7-.4-1.4"/>
        <path fill="#D9D9D9" d="M58.8 34.7s-.6.7-.6 1.2c0 0-1.4-.2-1.6-1.3-.2-1.1.8-1.8 1.3-1.9 0 0-.6-1.8 1.2-2.2 0 0 1.4-.4 2 1.2l-.2.5s-.8-.9-1.8-.9c0 0-.7 1.2-.4 2.2 0 0-1.1-.1-1.5.4 0 0 .4.9 1.2 1.3 0-.1.2-.5.4-.5"/>
        <path fill="#D9D9D9" d="M60.8 32.2l.2.5s.8-.4 1.5-.1c0 0 .2.8-.5 1.5 0 0 1.4.9 1.5 2.2 0 0-.5.2-1.4.2 0 0 .6.1 1.2 0s.6.6-.2 1.1c0 0 1.1-.4.9-2 0 0-.1-.8-.8-1.3 0 0 .6-1.1-.1-1.9-.2-.4-.8-.7-2.2-.6l-.1.4z"/>
        <path fill="#CCCDD2" d="M61.4 33.8s-.6.6-.8 1.1l3.1 1.5c-.1-.2 0-1.3-2.3-2.6M60.5 34.8l.2 1.3s-.7 1.3-2.4 1.4l2.2-2.7zM61.3 33.6s-.6.6-.8.9c0 0-.9-2.5-1.4-3.3 0 0-.8 1.1.1 2.9 0 0-1.1-1.6-.1-2.9 0 .2 1.6.2 2.2 2.4"/>
        <path fill="#CCCDD2" d="M62.5 32.7l-1.1 1.1.7.4c0-.1.6-.7.4-1.5 0 0-.5-.2-1.4.1.1-.1.8-.3 1.4-.1M58.7 33.5s.2.7.5.9l-1.9-.6c0 .1.5-.4 1.4-.3"/>
        <g transform="translate(52 35.2)">
            <mask id="e" fill="#fff">
                <use xlink:href="#c"/>
            </mask>
            <path fill="url(#d)" d="M.7 7.901l-.4 1.1C12.4 7.901 10 1.3 10 1.3c-.5 0-1.2-.399-1.2-.399 2.2 6.699-8.2 7-8.1 7" mask="url(#e)"/>
        </g>
        <g>
            <path fill="#C6C6C6" d="M75.1 44.6l.7.2s-2.1 1.9-8.1-.7c0 0-.1-.7-.2-.7s5.2 2.7 7.6 1.2"/>
            <path fill="#D9D9D9" d="M67 44.8l.1.2s3.8 2.4 4.4 2.6c.5.2 2.6 1.2 3.9-.2 0 0-.8.5-2.1-.1 0 0-1.2-.5-2.5-1.2-1.3-.8-3.2-1.9-3.2-1.9l.1.5-.7.1z"/>
            <path stroke="#D9D9D9" stroke-width=".05" d="M67 44.8l.1.2s3.8 2.4 4.4 2.6c.5.2 2.6 1.2 3.9-.2 0 0-.8.5-2.1-.1 0 0-1.2-.5-2.5-1.2-1.3-.8-3.2-1.9-3.2-1.9l.1.5-.7.1z"/>
            <path fill="#B2B2B2" d="M37.7 50.1s0 2.4.6 3.3c0 0-1.2 4.8-2.9 4.2 0 0 1.1-.6 1.5-2 .5-1.4.6-1.9.7-5.4l.1-.1z"/>
            <path fill="#D9D9D9" d="M36.1 45.1s-.8 2.8 0 4.4c.1 0-1-1.5 0-4.4"/>
            <path fill="#B2B2B2" d="M32 59.1l3.2-10.4s.4 1.4 1.3 2.2c0 0-2.1 7.4-4.7 9.1l.1-.5s-1.2-2.7 1.1-10.8c0 0-2.5 7.3-1.3 11.5l-.4.9s3.6-2.1 5.8-10.5l-.6.2s-1.8-1.5-1.2-4.6l-.2.4L32 59.1z"/>
            <path fill="#D9D9D9" d="M33.1 42.9s-1.5 2.1-.8 5.2v.1c-.1-.1-1-2.9.8-5.3"/>
            <path fill="#E6E6E6" d="M31.9 48.8l.7-.2s-.9 3.5-1.5 4.6c-.6 1.1-2.9 6.4-6.1 5.8 0 0 2.8-.7 4.5-4.5 0 0 .6-1.3.7-1.5.1-.2 1.1-2.5 1.1-2.5l.6-1.7z"/>
            <path fill="#CCCDD2" d="M31.4 40s-1.9.7-2.5 1.1c0 0-7.9 3.3-8 3.4-.2.1 7.7-2.7 7.7-2.7s.6-1 2.8-1.8"/>
            <path fill="#E6E6E6" d="M34.5 30.3s-.4-1.8-.1-2c0 0 1.2 1.5 1.6 2.5 0 0-.9.5-1.4-.2l.5.7s.5-.2.9-.1c0 0 .4-.1.7-.1 0 0-.4-.4-.5-.6-.2-.2-1.4-2-1.9-2.2 0 0 .9-.4 2.5 1.2 0 0 1.1 1.1 1.3 2.4 0 0-.4-3.2-4-4 0 0-.2 1.2.4 2.4M33.4 24.8s-3.6-2.2-5.5-2.2c0 0 .1 1.4 2.5 3.4 0 0-1.9-1.8-1.6-2.8-.1 0 .9-.5 4.6 1.6M24.7 24.8l.7.4s-.1 1.6 2.2 3.3c0 0 1.9 1.4 3.2 1.4 0 0-.9 0-1.2.1l-1.9-1.3-1.8-1.5h-.2c.1 0-.9-1.3-1-2.4M29.5 30.5s.1.8.4 1.2c0 0-6-2.4-6.1-4.6 0 0 .5 1.1 1.5 1.8 1.1.6 3.6 2 4.2 1.6M25.8 30.3s-2.8-.4-3.4.2l-.6-.2s.5 1.3 3.9 2.8c0 0 1.8.6 2.6-.1l.1.1s-1.3.7-1.4.8c0 0-4.4-1.5-5.3-3.6 0 0 1.5-.5 4.1 0M26.9 34.2s.2.5.4.6c0 0-2.1-.4-2.9-.1 0 0-3.1-.9-3.6-2.2 0-.2 2.1 2.2 6.1 1.7M23.2 35.2s-2.4.4-2.8 1.1h-.2s.1.9 4.1 2c0 0 2.1.6 3.3-.5v.1s-.7.6-.8.7c0 0-1.4.1-2.9-.4s-3.3-1.2-3.9-2c-.1 0 1.1-.9 3.2-1"/>
            <path fill="#CCCDD2" d="M20.6 36.3s4.7.5 5.7.5h3.6s-1.4.1-1.9.6c0 0-2.2-.4-3.1-.5"/>
            <path fill="#E6E6E6" d="M19.8 38.7s.9.7 2.6.7c1.6 0 3.6-.2 3.9-.1l.5.4s-2.2.2-3.1.2c-1-.1-3.1.1-3.9-1.2M24.6 40.9s-3.9 2.1-3.9 3.4l-.2.1s.2.5 2.9 0l.1.1H23c-.1 0-2 .5-3.1 0 .2.2.8-1.6 4.7-3.6M27.9 43.2s-.1.6-.1.8c0 0-2.2.8-3.3.9 0 0-.2.1-.4-.1 0 0-.1-.1-.5-.1l-.1-.1c-.1 0 2.6-.5 4.4-1.4"/>
            <path fill="#B2B2B2" d="M32.4 43.3s-.5.8-.5 1.2l-8.5 10.8s1.9.2 5.8-4.8c0 0 2-2.8 2.5-4 0 0 0-.7.1-1.1 0 0-.1 1.5 0 2 0 0-4.6 8.1-9.2 8.7l4.5-6 4.8-6.6.5-.2z"/>
            <path fill="#CCCDD2" d="M37.7 50.1s0 2.4.6 3.3c0 0-1.2 4.8-2.9 4.2 0 0 1.1-.6 1.5-2 .5-1.4.6-1.9.7-5.4l.1-.1zM32 59.1l3.2-10.4s.4 1.4 1.3 2.2c0 0-2.1 7.4-4.7 9.1l.1-.5s-1.2-2.7 1.1-10.8c0 0-2.5 7.3-1.3 11.5l-.4.9s3.6-2.1 5.8-10.5l-.6.2s-1.8-1.5-1.2-4.6l-.2.4L32 59.1z"/>
            <path fill="#E6E6E6" d="M31.9 48.8l.7-.2s-.9 3.5-1.5 4.6c-.6 1.1-2.9 6.4-6.1 5.8 0 0 2.8-.7 4.5-4.5 0 0 .6-1.3.7-1.5.1-.2 1.1-2.5 1.1-2.5l.6-1.7z"/>
            <path fill="#CCCDD2" d="M32.4 43.3s-.5.8-.5 1.2l-8.5 10.8s1.9.2 5.8-4.8c0 0 2-2.8 2.5-4 0 0 0-.7.1-1.1 0 0-.1 1.5 0 2 0 0-4.6 8.1-9.2 8.7l4.5-6 4.8-6.6.5-.2z"/>
            <path fill="#E6E6E6" d="M29.1 44.6s-3.1 3.5-4.2 5.5c-1.2 2.1-1.5 3.2-1.5 5.2l-.2.2s0-1.5.2-2.5c.3-.8 1.4-4.2 5.7-8.4M28.7 44.2L26.1 47s-2.5 1.5-3.5 1.8c0 0-1.9.8-2.8-.8 0 0 1.2.4 2.4 0 0 0 .9-.2 2.1-.8 0 0 2.5-1.5 3.1-2 .5-.4 1.5-.9 1.5-.9h-.2v-.1z"/>
            <path fill="#CCCDD2" d="M39.4 46.2s.1.6.6.9l-1.2 5.3.6-4.9s-.6 1.6-1.3 2.4c0 0 .1 2.6.6 3.3 0 0 2-1.4 2.2-5.2 0 0 .1-.2-.2-.4 0 0-.4-.2-.5-.2 0 0 .8.4 1.2.4 0 0-.4 4.5-2.8 6.2v-.7s-.6-.6-.7-3.2c0 0-.7.7-1.4.9l.1-.6s2-.8 2.6-4.1c0 0-.9.1-1.4 0l-1.2 3.9.6-4.1s-.7-.4-1.3-1.2c0 0 .1-.2.2-.5v-.1l.1.1s1.2 1.9 3.2 1.1v.4h.1s.1-.1 0-.4v-.1s.4 1.1 2.2.7c0 0 .2-.1.2.1v.4h.1v-.2s.9.7 2-.1l.4.6-.1-.1s-1.2.7-2.2.1c-.1-.2-1.5.2-2.7-.7"/>
            <path fill="#CCCDD2" d="M33.4 42.8s.1.4.4.6c0 0 .2.2.4.5.1.2.4.2.4.2l.2-.4s.6.7 1.5.5c0 0-.2.5-.4.7-.1.2-.7 1.5-1.1 2-.4.5-1.2 1.3-2.8 1.8l.4-.7s.7 0 1.4-.5c.6-.5 1.4-1.2 2-2.7 0 0-.9-.4-1.3-.6l-2 3.3 1.3-3.4s.1-.2 0-.5c-.1-.2-.4-.5-.4-.8M31.3 40.1s-2.7.9-2.9 3.5c0 0 2 .7 4.6-1.2 0 0-.7-.5-.9-.8l-3.4 1.8s3.1-2.1 3.2-2.4l.5-.2s.6.9 1.3 1.2c0 0-2.6 2.7-5.8 1.8l.5-.2c-.2.2.1-2.5 2.9-3.5"/>
            <path fill="#CCCDD2" d="M28.7 37.5s-1.8.8-1.9 1.6l4-.7.5.7-.2-.2-4.2.4s1.3.9 3.6 1.1c0 0-.9.4-1.1.5 0 0-1.5-.1-2.7-1.1h.1s1.2.7 1.3.5c.1-.2-.5-.2-.7-.5-.2-.1-.8-.5-.8-.6 0 0 .6-1.1 2.1-1.7M31.5 33.4s-2.5-.4-3.9.7c0 0 1.1.4 1.9.5.9.2 2.2.5 2.2.5s-.4.4-.4.5l-3.8-1.3s.4 1.4 2.2 2.2c0 0 .7.2.8.1.1-.2.4-.5.5-.6.1-.1-.4.4-.5.9 0 0-.7-.2-.9-.4-.2-.1-1.6-.7-2.4-2.4.3.1 1.4-1 4.3-.7M34.6 31.5s-2.5-1.3-4.5-1.1c0 0 .1 2.5 2 2.4 0 0-.4.5-.6.4-.2-.1-1.5-.9-1.6-2.8.1-.1 2.2-.5 4.7 1.1"/>
            <path fill="#CCCDD2" d="M30.4 30.6s2.7 1.4 3.5 1.8l-.1.2s-.5-.1-.9-.1l-2.5-1.9z"/>
            <path fill="#E6E6E6" d="M28.8 23.2l3.5 2.7s2.1 1.6 3.2 1.9l-1.3-.5s-.4-.1-.4.4c0 0 0 .4-.1.5 0 0 0-.6-.1-.8-.2-.2-1.3-1.2-1.3-1.2l-3.5-3z"/>
            <path fill="#CCCDD2" d="M34 30.1s.1.6.2.6v.1s-1.9-.8-2.7-.9l-6.1-4.7s.9-.4 3.6.7c0 0-2.7-.9-3.3-.6l6.8 4.6s.8.5 1.5.8c.1 0 0-.5 0-.6M22.6 30.7l7.9 2.4-.2-.4.4.4s-1.3-.1-1.6 0c-.2 0-5.9-2.3-6.5-2.4M36.2 31.4s.5-.1.8 0c.4.1 1.1.7.9 1.9l-.5.2c.3 0 .5-1.9-1.2-2.1"/>
            <path fill="#CCCDD2" d="M38 33.2s1.3.4 1.2 1.4c0 1.1-.8 1.4-1.5 1.3 0 0 1.2 0 1.2-1.1 0 0 .1-1.3-1.2-1.4l.3-.2z"/>
            <path fill="#E6E6E6" d="M36 26.7s6.1 4.6 4.7 8.4c0 0-.7 1.8-2.5 1.1 0 0 2-.1 2-2-.1-.2-.1-2.9-4.2-7.5"/>
            <path fill="#CCCDD2" d="M36.5 35.4l1.4-.1s-.2.8-.8.9c0 0-.5-.6-.6-.8"/>
            <path fill="#CCCDD2" d="M36.5 32.3l-1.1 3.3s.7 0 1.1-.1c-.1-.1.8-2 0-3.2"/>
            <path fill="#CCCDD2" d="M37.3 38.6l-2-3.1s.8 0 1.1-.1c0 .1 1.3 1.3.9 3.2M34.6 34s-.2.7-.2.9c0 0 .6.5.7.6 0 0-.6-.4-1.1-.9l-.7-.7s.5-.3 1.3.1M35.3 35.6l-.6 1.6s-1.5.7-2.7 0l3.3-1.6z"/>
            <path fill="#E6E6E6" d="M34.6 43.6s-.9-1.2-.6-1.9c0 0-.8-.6-.8-1.2 0 0 .4.8.9.9 0 0 1.4 1.1 2.2 1.3 0 0-4.1-1.5-2.9-5.2 0 0-.9 0-1.3-.4 0 0 .1-1.8 1.9-2.2 0 0-.5 0-.6.1 0 0-.5-.8 0-1.4 0 0 .5-.2 1.4.1 0 0 .8-1.6 1.8-1.6 0 0 .7.7.4 2.2 0 0 .9.4 1.1.8 0 0 0 .4-.2.6 0 0 1.2 0 1.2-.9s-.6-1.4-1.3-1.4c0 0 .2-1.9-1.4-2.1 0 0-1.3-.2-2.1 1.4 0 0-1.4-.5-2 .6 0 0-.4.8.2 1.8 0 0-1.3.8-1.2 2.2 0 0 0 .8.8 1.6 0 0-.2 1.8 1.8 3.1-.4.2.1 1.4.7 1.6"/>
        </g>
        <g transform="translate(34 37.2)">
            <mask id="h" fill="#fff">
                <use xlink:href="#f"/>
            </mask>
            <path fill="url(#g)" d="M2.9 4.5c1.5.8 4.4 1.201 4.4 1.201L7.5 4.6c-1.499-.1-3.299-.699-3.299-.699C.9 3.001 1.7 1 1.7 1c.6.401 1.4.401 1.4.401C1.3 1.201.7.1.7.1c-.8 2.801.801 3.801 2.2 4.4" mask="url(#h)"/>
        </g>
        <g>
            <path fill="#B2B2B2" d="M47.1 23.6s.2.1.6.2c.4.1.7.1.7.2 0 0-.2.6-.7.5-.6 0-.7-.4-.6-.9"/>
            <path fill="#D9D9D9" d="M68.7 38.6l-4.7-.4c0 .1.1.4.1.5l4.6-.1zM63 41.3v.1l3.5 2.2-3.3-2.6c-.1.2-.2.3-.2.3zm4.9-7.8L64.7 35c0 .1.1.2.1.4l3.1-1.9zM68.9 39.5c-.1.1-.4.2-.6.4.4 0 2.6.7 2.6.7 4.8.6 4.5-2.1 4.5-2.1-.7 2-6.5 1-6.5 1"/>
            <path fill="#FC0" d="M68.3 66.6c0 .4-.2.6-.2.6.4.1.5.6.6.8.7-.5.6-2.1-.2-2.2 0 0-.1.6-.2.8M66.6 70.5c0 .6 0 .9-.1 1.3.9.1 1.4-.6 1.5-1.4 0 0 0-.1-.4 0-.3.1-1 .1-1 .1M63.9 72.7c-.2.2-.6.5-.8.7.7.4 1.8.1 2-.5v-.2s0-.1-.4 0h-.8zM58.3 70.1h-.6c.2.9 1.8 1.3 2.4.6-.5-.1-.6-.4-.8-.8-.2-.1-.8.2-1 .2M36.8 70.7c-.4 0-.5-.2-.5-.2 0 .2 0 .5-.1.7l-.4.4c.7.4 1.9.1 1.9-.8 0-.1-.5-.1-.9-.1M30.6 73.3c.1.8 1.8 1.3 2.4.5-.2-.1-.8-.6-.9-.9 0-.1-.7.6-1.5.4M27.7 71.2c.1.6.5.9.8 1.2.4.2.8.4 1.3.4-.1-.2-.2-.4-.4-.6-.1-.2 0-.6-.1-.9-.7.1-1.6-.1-1.6-.1M26.8 67.1c-.6.6-.5 2.1.4 2.2 0-.7.5-.9.8-1.3-.9-.1-1.2-.9-1.2-.9M48.1 26.7c.2.5-.2.4-.2.4-2.1-1.1-2.6.2-2.6.2 0 .1-.1.4 0 .4.1.1.2 0 .2 0 .8-.6 2 0 2 0 2 .9 1.8-.5 1.8-.5-.4-2-3.4-2-3.4-2-.5-1.8-2.2-1.6-2.2-1.6-.9 0-1.8.4-1.8 1.3 0 .6.1 1.1.4 1.5.4-.4.8-.6 1.4-.6.5 0 .7.4.9.6 2.6-.9 3.5.3 3.5.3"/>
            <path fill="#D0D0D0" d="M48.1 28c-.1 0-.4-.1-.6-.2 0 0-.9-.5-1.6-.2.4 0 1.4.1 1.9 1.2.5 1.2-.1 2.1-.1 2.1.2-.4.6-.8.6-.8.7-1.2-.2-2.1-.2-2.1m1.2-.6c0 .2-.2.7-.9.6l.1.1c.2 0 .6-.1.6-.1 0 .2-.1.2-.1.2.2.9-.1 2.1-.1 2.1.1-.1.2-.1.2-.1.1.1.2.1.2.1.7-1.5.1-2.7 0-2.9"/>
            <path fill="#E4AD00" d="M48.5 26c0 .1.4.6.4.8.1.2.4 1.3-1.1.6-1.4-.6-2-.2-2.2.1-.1.4 0 .2 0 .2.8-.6 2 0 2 0 2 .9 1.8-.5 1.8-.5-.2-.5-.4-1-.9-1.2m-6 0c.4-.1.7-.4 1.2-.4s.7.4.9.6c2.7-.8 3.6.5 3.6.5.1.1.1.2.1.2s.1-.1 0-.4c-.2-.2-.9-1.1-2.7-.8-.2.1-2.3-1.4-3.1.3-.1-.1-.2.1 0 0"/>
            <path fill="#FC0" d="M47.4 22.2c3.1.6 3.3.2 3.3.2.2-1.1.5-2 .8-2.9.4-.9.8-1.8 1.2-2.5-.6.4-1.4.5-1.9 1.1-.4-.5-1.2-.1-1.3.2 0-.5-.2-.7-.6-.7.4-.6-.2-1.1-.7-.7 0-.4-.4-.6-.6-.8-.2.2-.5.5-.4.9-.4-.4-.9 0-.7.5-.6 0-.7.6-.7 1.1-.1-.6-.9-.7-1.3-.2-.2-.7-1.3-.6-1.8-1.1.8 1.4 1.4 3.2 1.9 4.9 1.3-.2 2.8 0 2.8 0"/>
            <path fill="#E4AD00" d="M44.1 24l.1.1V24.7s0 .2-.4 0c0 0 0 .1.5.2 0 0 .7-.1 1.1.4l.1.1h.1c-.1-.1-.3-1.2-1.5-1.4M44.6 18.3s.1.1.1.8c-.1.7.1.9.2.9h.5s0-.2.1-.4c.1-.1.4-.6.4-.9 0 0 .1.5-.2.9 0 0-.2.5.4.5.6 0 .6-.2.7-.2 0-.1 0-.2-.2-.5-.2-.2-.4-.5-.4-.5s.2.5.5.6c.1.1.2.5 0 .6 0 0 0 .1.2 0s.7-.5.8-.9c0 0 0-.2-.1-.4-.1-.1-.5-1.1.4-1.3 0 0 .8-.1.7 1.1 0 0-.1.5-.1.7 0 .1-.1.7.7.9 0 0-.1-.5 0-.6.1-.2.4-.6.4-.6s.2-.5-.1-.9c0 0 .4.4.2.8-.2.5-.9 1.1-.2 1.4 0 0 .6.1.7-.4 0 0 0-.2-.1-.6-.1-.4-.2-.7-.1-1.1 0 0-.2.4 0 .8.2.5.2.8.1 1.1 0 0 .5.1.6-.1.2-.2.2-.5.4-.9.1-.5.2-1.1.4-1.3 0 0-.2.5-.4 1.2 0 .7-.1 1.2-.5 1.3H50s-.6.1-.9 0c-.5-.1-.7-.5-.7-1.3h-.2s.2 0 .4-.4c.1-.4 0-.9-.5-.9 0 0-.6 0-.6.7 0 0 0 .4.2.6.2.2.1.6-.1.8-.2.2-.4.5-.8.5-.5 0-.8 0-.9-.1 0 0-.7.2-.8-.4v-.6c-.4-.3-.4-.5-.5-.9M47.7 22.2s.7.1 1.1.1c.4 0 .6.1.8.1h.8s-.6.1-1.3 0c-.6-.1-1.4-.2-1.4-.2M45.2 21.6s.9.1 1.2.1c.2 0 .9.1 1.1.1.1 0 1.3.1 1.5.1h1.3H49c-.4 0-.8 0-.9-.1-.1 0-1.6-.1-1.8-.1l-1.1-.1zM46.6 20.7h-.7c-.6 0-.7 0-.7.4 0 .2.1.4.1.4h1.1c.2 0 .2-.2.2-.4.1-.3.1-.3 0-.4m-.3.6h-.9c-.1 0-.1-.2-.1-.4 0-.1.2-.1.4-.1h.8c.1 0 .1.1.1.4-.1.1-.3.1-.3.1M50.4 20.9c-.2 0-.8-.1-.8-.1-.5 0-.5.2-.5.5 0 .2.8.4 1.1.4.4 0 .5-.1.5-.2-.1-.3-.2-.6-.3-.6m-.4.5c-.5 0-.8-.1-.8-.1s-.1-.1 0-.4c0 0 .1-.1.5-.1s.8.1.8.1c-.1 0 0 .5-.5.5M48.7 21c0-.2-.2-.2-.2-.2s-.5-.1-.8-.1h-.2c-.1 0-.2.1-.2.2s0 .2.1.2c.1.1.9.1 1.2.1.1.2.1-.2.1-.2m-1.4-.3h1c0 .1.1.4-.2.5h-.9s-.1-.1-.1-.2c0-.2.1-.2.2-.3"/>
            <path fill="#C6C6C6" d="M50.1 73.3c-.4-.6-.4-1.6-.4-1.8 0-.1-.1-.2-.2-.2-.1.4-.2.6-.4.9.7 3.5-1.1 5.8-1.1 5.8-1.3-1.2-1.1-5.3-1.1-5.3-.2 4.6 1.1 5.5 1.1 5.5v.8c1.3-1.9 1.4-2.9 1.5-4 .1-1.4-.2-2.6-.2-2.6l.4.5.4.4z"/>
        </g>
    </g>
</svg>
