<?xml version="1.0" encoding="UTF-8"?>
<svg id="Laag_1" xmlns="http://www.w3.org/2000/svg" width="101.41mm" height="103.4mm" version="1.1" viewBox="0 0 287.47 293.09">
  <!-- Generator: Adobe Illustrator 30.1.0, SVG Export Plug-In . SVG Version: 2.1.1 Build 136)  -->
  <g id="R4UPdr.tif">
    <path d="M183.4,258.02c-2.6,12.83-7.81,33.32-22.5,34.97s-24.9-18.09-30.55-29.67c-41.74-5.77-77.06-32.57-93.47-71.22-10.91-.76-33.16-4.27-36.24-16.44-4.27-16.91,13.48-27.81,26.98-36.38.92-7.76,1.96-15.29,3.82-23.27-9.15-11.15-23.96-29.86-15.68-43.54,7.57-12.5,28.81-8.15,41.58-4.56,12.8-14.16,28-24.7,45.61-31.67C105.06,24.2,111.08,1.73,124.6.15c16.56-1.94,24.27,15.31,31.27,28.46,37.78,3.31,70.86,24.02,90.77,55.72,13.41.58,36.24,3.05,40.21,17.28,4.01,14.38-12.26,25.97-23.28,33.35,1.9,22.12-1.89,43.45-11.76,63.41,7.45,10.48,18.48,26.18,9.84,38.39-8.44,11.93-30.74,6.17-42.97,3.1-11.15,6.68-22.08,14.49-35.28,18.17ZM138.94,28.18c-3.05-6.04-6.17-11.3-11.83-14.19-4.71,4.79-6.58,10.78-7.9,17.1l19.72-2.91ZM140.87,164.98c15.34-2.87,31.85-7.74,46.02-12.8,1.88-5.44,5.56-9.68,9.43-11.46,6.06-2.77,11.11,1.15,15.65,2.07,12.55-2.87,23.87-9.73,35.68-15.52-11.39-60.59-72.71-97.77-131.66-79.99-.71,12.16-3.68,24.66-1.29,36.46,2.39,3.97,7.13,7.48,7.37,12.88.25,5.74-4.41,9.53-6.6,13.76-2.08,12.82,1.69,26,2.3,39.11,11.19.56,17.48,8.14,23.1,15.49ZM100.1,110.72c-6.26-2.94-7.51-8.31-8.48-12.99-1.36-6.56,5.26-9.34,6.64-14.01,2.75-9.32.79-19.86,2.1-30.23-25.36,12.08-43.44,33.61-52.42,59.07,15.35,16.11,31.38,29.76,48.63,42.68,2.1-1.17,6.17-2.23,6.42-4.33-.82-13.5-2.76-26.18-2.89-40.19ZM37.21,99.37c3.54-7.12,6.52-12.6,10.12-18.66-4.07-1.78-17.48-2.95-18.84-.56-2.07,3.62,5.01,15.19,8.72,19.22ZM272.94,105.14c-6.04-3.67-11.64-4.99-18.27-5.25,2.58,6.58,4.26,11.95,6.23,18.77,5.21-3.51,10.56-7.18,12.04-13.51ZM86.24,175.26c.87-2.82,1.71-5.18,1.67-8.17-15.44-11.61-29.62-23.65-44.1-37.66-3.05,16.59-1.54,33.12,3.58,48.45,13.83-.04,26.14-1.01,38.84-2.62ZM142.45,186.64c22.82,14.06,46.77,26.96,72.63,36.45,22.25-20.28,35.27-48.87,34.14-79.86l-31.86,14.59c-2.55,3.9-5.2,9.11-9.22,11.03-6.27,3-11.27-1.32-16.13-1.8l-48.12,12.47c-1.54.83-2.16,5.4-1.44,7.12ZM31.47,176.56c-1.61-7.38-2.5-12.69-3.5-19.96-5.76,3.7-11.1,7.7-13.92,14.16,4.79,4.18,10.83,5.3,17.42,5.8ZM110.95,164.46c-8.09,2.42-11.33,10.75-9.08,17.33,2.46,7.19,9.86,10.65,16.5,8.83,7.65-2.1,11.67-9.76,9.48-17.15-1.96-6.64-9.18-11.33-16.91-9.02ZM112.58,205.66c-10.98-1.09-18.75-7.16-23.49-16.18-12.13,1.68-23.51,2.23-35.84,3.08,14.29,28.35,40.14,48.12,70.76,54.69-4.58-14.31-8.09-27.25-11.43-41.59ZM140.9,249.76c22.02.3,41.87-4.35,60.13-16.23-23.97-10.14-45.56-21.59-66.96-34.89l-7.17,4.54c3.83,15.83,7.48,31.42,14,46.57ZM249.85,227.38c.66-5.62-3.43-10.5-6.1-14.76l-12.1,15.11c5.84.99,13.83,3.74,18.21-.35ZM159.25,278.23c4.94-2.85,6.43-10.17,7.93-15.62l-19.62,2.01c2.89,5,5.98,12.11,11.69,13.6Z" fill="#047bd7"/>
  </g>
  <circle cx="106.54" cy="97.66" r="16.21" fill="#007ad7"/>
  <circle cx="201.42" cy="155.13" r="16.21" fill="#007ad7"/>
</svg>